<svg width="166" height="166" viewBox="0 0 166 166" fill="none" xmlns="http://www.w3.org/2000/svg">
<path d="M74.1596 79.5591H60.5264V86.428H74.1596V120.515C66.2847 118.645 59.196 114.349 53.8943 108.234C48.5925 102.118 45.3455 94.4915 44.6115 86.431C44.504 85.3021 44.4562 84.1553 44.4562 82.9965C44.4562 81.8378 44.504 80.688 44.6115 79.5591C45.3446 71.4983 48.5913 63.8714 53.8932 57.7555C59.1951 51.6396 66.2843 47.3437 74.1596 45.4746V76.4412H81.0464V37.6172C78.7332 37.7151 76.4309 37.9896 74.1596 38.4385C54.428 42.3477 39.2508 59.0749 37.7247 79.5531C37.6411 80.688 37.5963 81.8348 37.5963 82.9905C37.5963 84.1463 37.6411 85.2931 37.7247 86.425C39.2657 106.9 54.4489 123.633 74.1596 127.54C76.4309 127.988 78.7332 128.263 81.0464 128.361V79.5591H74.1596Z" fill="#D8CFBD"/>
<path d="M128.283 79.559H95.731V86.4278H121.367C120.634 94.4869 117.389 102.112 112.089 108.227C106.788 114.342 99.7011 118.637 91.8277 120.506V45.4804C99.1795 47.2267 105.858 51.0904 111.037 56.5933C116.215 62.0962 119.667 68.9968 120.964 76.4411H127.919C126.554 67.1628 122.355 58.533 115.897 51.7325C109.439 44.932 101.038 40.293 91.8426 38.4503C89.5779 37.9965 87.2814 37.7199 84.9737 37.623L84.9498 128.367H84.9737C87.2812 128.269 89.5776 127.994 91.8426 127.542C111.577 123.633 126.748 106.9 128.277 86.4308C128.361 85.299 128.406 84.1492 128.406 82.9964C128.406 81.8436 128.361 80.6938 128.277 79.559" fill="#D8CFBD"/>
<path d="M82.9966 166C63.7942 165.999 45.1863 159.34 30.3431 147.158C15.5 134.975 5.3401 118.023 1.59454 99.1896C-2.15103 80.3562 0.749498 60.8066 9.80188 43.8719C18.8543 26.9373 33.4984 13.6653 51.2392 6.31726C68.98 -1.03073 88.7197 -2.00007 107.095 3.57442C125.47 9.1489 141.345 20.9223 152.013 36.8886C162.681 52.8549 167.482 72.0262 165.6 91.136C163.718 110.246 155.268 128.112 141.69 141.69C133.999 149.421 124.852 155.55 114.778 159.723C104.703 163.896 93.9011 166.029 82.9966 166ZM82.9966 5.15764C40.0751 5.15764 5.15735 40.0754 5.15735 82.9969C5.15735 125.918 40.0751 160.836 82.9966 160.836C125.918 160.836 160.836 125.918 160.836 82.9969C160.836 40.0754 125.918 5.15764 82.9966 5.15764Z" fill="#D8CFBD"/>
<path d="M122.887 46.344C122.696 46.3275 122.504 46.3495 122.322 46.4085C122.14 46.4674 121.971 46.5623 121.827 46.6874C121.68 46.7999 121.557 46.9409 121.466 47.1021C121.375 47.2633 121.318 47.4412 121.298 47.6252C121.276 47.8044 121.291 47.9863 121.342 48.1595C121.394 48.3327 121.48 48.4934 121.597 48.6316C121.705 48.7764 121.843 48.8964 122.002 48.9835C122.161 49.0705 122.336 49.1226 122.516 49.1363C122.7 49.151 122.884 49.129 123.059 49.0715C123.234 49.0141 123.396 48.9224 123.535 48.8018C123.84 48.5701 124.044 48.2301 124.105 47.8521C124.133 47.6709 124.121 47.4858 124.069 47.3098C124.017 47.1339 123.928 46.9714 123.807 46.8338C123.694 46.6903 123.552 46.5725 123.39 46.4881C123.229 46.4036 123.051 46.3545 122.869 46.344" fill="#D8CFBD"/>
<path d="M136.493 55.8678L145.506 51.612L144.192 48.8227L134.815 53.2516C134.654 53.3507 134.468 53.4009 134.279 53.3962C134.091 53.3914 133.907 53.3318 133.752 53.2247C133.601 53.111 133.471 52.9715 133.369 52.8126C132.791 51.8873 132.27 50.9279 131.807 49.9396C131.718 49.7455 131.592 49.4678 131.443 49.1273C131.298 48.8112 131.198 48.4765 131.144 48.1328C131.124 47.9925 131.109 47.861 131.103 47.7386C131.11 47.588 131.134 47.4388 131.174 47.2936C131.211 47.1567 131.261 47.0237 131.324 46.8964L132.297 47.8491L134.63 45.9885L134.474 45.7944C134.301 45.5833 134.14 45.3629 133.991 45.1344C133.839 44.9022 133.703 44.6597 133.584 44.4087C133.373 44.0284 133.199 43.6283 133.065 43.2141C132.921 42.7811 132.766 42.2316 132.551 41.5596C132.243 40.582 131.995 39.8354 131.807 39.3198C131.625 38.8104 131.384 38.3242 131.088 37.8713C130.723 37.2384 130.128 36.7708 129.427 36.5662C128.724 36.3908 127.986 36.423 127.301 36.6588C126.51 36.9177 125.774 37.323 125.133 37.8534L125.936 38.8449C126.659 38.5084 127.275 38.4915 127.785 38.7941C128.364 39.1772 128.801 39.7395 129.03 40.3949C129.399 41.3638 129.649 42.3735 129.777 43.4023L129.851 43.9995C129.105 43.7269 128.383 43.3933 127.692 43.0021C127.068 42.6323 126.476 42.2097 125.924 41.7388C125.303 41.237 124.711 40.7006 124.15 40.1321C123.574 39.484 123.009 38.824 122.421 38.1879C118.24 33.6664 114.313 30.7934 108.662 28.5058C108.54 28.4669 107.898 28.3027 107.68 27.783C107.56 27.4983 107.605 27.0683 107.814 26.4929L111.225 17.1244L108.325 16.0701L105.067 25.0295C104.944 25.355 104.726 25.6353 104.44 25.8329C104.129 26.0597 103.766 26.2064 103.385 26.2599C102.997 26.3207 102.6 26.2753 102.236 26.1285L105.201 17.8142L102.215 16.7272L99.2909 25.0893L93.8196 23.3661L92.6251 26.6183L99.3446 28.8193C100.571 29.2653 101.59 29.3489 102.403 29.0702C103.246 28.7648 103.957 28.177 104.416 27.4067L104.541 27.4515C104.274 28.4749 104.303 29.3051 104.628 29.9423C104.95 30.5784 105.613 31.0771 106.614 31.4355L107.474 31.7341C110.929 33.4394 113.038 33.6843 121.57 42.1479C122.137 42.7094 122.466 43.1872 123.048 43.6561C123.539 44.0458 124.078 44.371 124.652 44.6237C125.352 44.9212 126.074 45.1648 126.811 45.3524C126.784 45.3524 127.22 45.454 128.125 45.6361C128.495 45.7138 128.836 45.7855 129.153 45.8571L129.2 45.9169L128.881 46.2155C128.458 46.6978 128.163 47.2792 128.025 47.9057C127.886 48.5323 127.909 49.1836 128.089 49.7993L129.741 53.3322H129.723L130.18 54.2969C130.216 54.3745 130.26 54.4402 130.299 54.5149C130.338 54.5895 130.335 54.5925 130.356 54.6314C130.663 55.1944 131.111 55.6686 131.655 56.0081C132.315 56.3992 133.076 56.5834 133.841 56.5367C134.763 56.4784 135.664 56.2346 136.49 55.82" fill="#D8CFBD"/>
<path d="M146.838 54.9816L132.612 59.833L133.607 62.7529L147.834 57.9015L146.838 54.9816Z" fill="#D8CFBD"/>
<path d="M25.2351 114.973L25.1126 114.707C24.8919 114.274 24.8316 113.777 24.9424 113.303C24.9942 113.086 25.0901 112.882 25.2242 112.703C25.3583 112.524 25.5277 112.375 25.7219 112.264L25.689 112.195C25.3091 112.196 24.9352 112.1 24.602 111.918C24.1863 111.697 23.8156 111.4 23.5089 111.043C23.144 110.625 22.8422 110.156 22.613 109.651C22.2935 108.982 22.1098 108.256 22.0724 107.516C22.035 106.893 22.1726 106.272 22.4696 105.724C22.7629 105.201 23.2176 104.787 23.7657 104.544L24.4497 104.228L24.9126 105.219L24.4377 105.44C24.2813 105.511 24.1406 105.612 24.0237 105.737C23.9068 105.863 23.8161 106.011 23.7568 106.172C23.625 106.555 23.5911 106.966 23.6582 107.366C23.7373 107.879 23.8923 108.377 24.1181 108.845C24.3764 109.428 24.6947 109.982 25.0679 110.499C25.323 110.869 25.6657 111.171 26.0653 111.377C26.2305 111.459 26.4125 111.502 26.5969 111.502C26.7814 111.502 26.9633 111.459 27.1285 111.377L32.5728 108.848L33.1701 110.141L27.233 112.9C26.9555 113.01 26.7323 113.224 26.6119 113.498C26.559 113.63 26.5353 113.773 26.5425 113.916C26.5498 114.058 26.5877 114.198 26.6537 114.325M26.7253 109.31L25.6562 107.065L26.2863 106.766L26.5372 107.307C26.5626 107.188 26.6169 107.077 26.6955 106.984C26.7835 106.877 26.8949 106.791 27.021 106.733C27.1406 106.672 27.2719 106.636 27.4062 106.629C27.5406 106.622 27.675 106.643 27.8005 106.691C28.0567 106.8 28.2602 107.005 28.3679 107.262C28.4271 107.375 28.4631 107.5 28.4738 107.627C28.4846 107.755 28.4699 107.883 28.4306 108.005C28.3359 108.251 28.1496 108.45 27.911 108.561L27.7975 108.373C27.8398 108.333 27.8722 108.283 27.8919 108.228C27.9116 108.173 27.9181 108.114 27.911 108.056C27.9054 107.891 27.8647 107.729 27.7915 107.581C27.7316 107.438 27.6268 107.317 27.4929 107.238C27.4399 107.204 27.3791 107.184 27.3164 107.181C27.2537 107.177 27.191 107.19 27.1345 107.217C27.0604 107.25 26.996 107.301 26.9474 107.366C26.8988 107.431 26.8676 107.507 26.8568 107.587C26.8319 107.788 26.8683 107.991 26.9613 108.17L27.3465 108.997L26.7253 109.31Z" fill="#D8CFBD"/>
<path d="M25.2355 114.973L26.6361 114.322C27.3751 115.671 28.2263 116.954 29.1806 118.16C29.3576 118.38 29.5579 118.58 29.7779 118.757C29.9158 118.883 30.0744 118.984 30.2468 119.056C30.5617 118.866 30.8667 118.661 31.1606 118.441C31.5907 118.142 32.0566 117.769 32.4508 117.479L32.6747 117.321L32.8957 117.159L33.6722 118.235L31.7161 119.677C31.3064 119.996 30.8327 120.223 30.3274 120.343C29.9306 120.43 29.516 120.377 29.1537 120.194C28.7434 119.963 28.3934 119.639 28.1323 119.247L27.8815 118.903L25.2355 114.973ZM33.0301 116.09L33.6812 115.621L33.9798 116.034C33.9923 115.896 34.0396 115.765 34.1172 115.651C34.2012 115.519 34.3096 115.405 34.4368 115.314C34.5586 115.22 34.6984 115.153 34.8475 115.117C34.9966 115.08 35.1517 115.075 35.3028 115.102C35.4562 115.129 35.6025 115.187 35.7333 115.271C35.864 115.356 35.9766 115.466 36.0644 115.595C36.1458 115.698 36.2057 115.817 36.2406 115.944C36.2754 116.072 36.2846 116.204 36.2675 116.335C36.2228 116.606 36.0778 116.85 35.8613 117.019L35.709 116.932C35.7659 116.802 35.7785 116.656 35.7448 116.517C35.7138 116.366 35.6426 116.226 35.5388 116.111C35.428 115.977 35.2838 115.874 35.1207 115.813C35.0596 115.787 34.9933 115.778 34.9276 115.785C34.862 115.791 34.799 115.814 34.7444 115.851C34.6665 115.907 34.6033 115.982 34.5601 116.067C34.517 116.153 34.4952 116.248 34.4965 116.344C34.4982 116.576 34.5758 116.8 34.7175 116.983L35.2521 117.724L34.5622 118.223L33.0301 116.09Z" fill="#D8CFBD"/>
<path d="M32.2775 124.553L32.0834 124.317C31.7978 123.985 31.606 123.583 31.5279 123.153C31.4727 122.752 31.5448 122.345 31.734 121.988C31.9723 121.555 32.2976 121.175 32.6896 120.874L37.7965 116.72L38.6924 117.822L33.4542 122.086C33.3407 122.159 33.2458 122.256 33.1773 122.372C33.1088 122.488 33.0686 122.618 33.06 122.752C33.1093 123.063 33.2532 123.351 33.4721 123.577C33.4721 123.577 37.3246 128.513 42.0014 131.807L41.0697 133.044C37.7275 130.672 34.7623 127.81 32.2745 124.553" fill="#D8CFBD"/>
<path d="M42.1207 135.765C42.0682 135.837 42.0017 135.897 41.9252 135.943C41.8488 135.989 41.7639 136.019 41.6757 136.031C41.5861 136.046 41.4944 136.042 41.4064 136.019C41.3184 135.997 41.2362 135.956 41.165 135.899C41.0905 135.846 41.0276 135.778 40.9804 135.699C40.9331 135.621 40.9024 135.533 40.8903 135.442C40.8699 135.263 40.9206 135.084 41.0315 134.942C41.1424 134.8 41.3045 134.707 41.4831 134.684C41.6617 134.66 41.8423 134.708 41.9862 134.816C42.13 134.925 42.2255 135.085 42.2521 135.263C42.2645 135.351 42.2593 135.441 42.2367 135.527C42.2142 135.613 42.1747 135.694 42.1207 135.765ZM42.0042 131.808L42.1207 131.894C42.3275 132.052 42.5558 132.18 42.7986 132.274C42.9883 132.351 43.1911 132.39 43.3959 132.39C43.4755 132.299 43.6338 132.093 43.8707 131.772C44.1077 131.451 44.4063 131.048 44.7667 130.562L45.8269 131.36L44.91 132.764C44.7023 132.998 44.5951 133.305 44.6114 133.618C44.6866 133.924 44.8784 134.188 45.146 134.355L44.3396 135.681L43.9753 135.407C43.6051 135.154 43.3272 134.789 43.1839 134.364C43.0725 133.903 43.1177 133.417 43.3123 132.985L43.2645 132.949C42.9732 133.221 42.5987 133.387 42.2013 133.421C41.7923 133.436 41.3919 133.301 41.0754 133.041" fill="#D8CFBD"/>
<path d="M53.2275 140.779C52.8004 140.528 52.1643 140.206 51.9911 139.835C51.8215 139.473 51.7958 139.06 51.9194 138.679L51.8895 138.662C51.6438 138.975 51.3051 139.203 50.9219 139.313C50.7474 139.361 50.5648 139.371 50.3859 139.345C50.2069 139.318 50.0355 139.254 49.8826 139.157C49.5769 138.987 49.3426 138.713 49.2226 138.384C49.1004 138.051 49.1004 137.686 49.2226 137.353L49.1689 137.324C48.9376 137.578 48.6327 137.753 48.2968 137.825C47.9738 137.895 47.6362 137.837 47.3561 137.661C47.0167 137.475 46.7558 137.173 46.6214 136.81C46.4952 136.444 46.5036 136.045 46.6453 135.684L46.6035 135.66C46.3603 135.932 46.0204 136.097 45.6568 136.12C45.2698 136.132 44.8881 136.028 44.5607 135.821C44.5428 135.821 44.3517 135.681 44.3338 135.669L45.1252 134.331L45.5552 134.615C45.8216 134.799 46.1496 134.872 46.4691 134.818C46.6192 134.775 46.7587 134.701 46.879 134.601C46.9992 134.502 47.0976 134.378 47.1679 134.239L47.5084 133.662L48.6522 134.364L48.2938 134.961C48.1138 135.225 48.0227 135.539 48.034 135.857C48.0407 135.981 48.0788 136.1 48.1446 136.205C48.2105 136.309 48.3019 136.395 48.4103 136.455C48.5577 136.545 48.7271 136.594 48.9001 136.595C49.0579 136.597 49.2138 136.56 49.354 136.487L50.0977 135.233L51.2385 135.908L50.8801 136.505C50.6995 136.769 50.6055 137.082 50.6113 137.401C50.6178 137.519 50.6538 137.632 50.716 137.732C50.7781 137.832 50.8643 137.914 50.9667 137.972C51.1145 138.063 51.2857 138.11 51.4595 138.106C51.6204 138.104 51.779 138.068 51.9254 138.002L53.0871 136.042L54.2369 136.726L53.4574 138.043C53.3698 138.169 53.3106 138.312 53.2837 138.462C53.2569 138.613 53.2632 138.767 53.3021 138.915C53.3858 139.181 53.8487 139.435 54.2369 139.605L53.6187 140.997L53.2275 140.779Z" fill="#D8CFBD"/>
<path d="M54.0933 139.518C54.5353 139.721 54.9893 139.981 55.2222 139.945C55.3597 139.918 55.4874 139.855 55.5923 139.762C55.6973 139.669 55.7757 139.55 55.8195 139.417L58.7164 133.169L60.0245 133.766L57.2829 139.739C57.0898 140.192 56.8028 140.6 56.4407 140.934C56.1402 141.206 55.7622 141.377 55.3596 141.424C54.8866 141.448 54.4151 141.352 53.9888 141.146L53.4632 140.88L54.0933 139.518Z" fill="#D8CFBD"/>
<path d="M61.1777 134.226L57.7611 142.799L59.0955 143.331L62.5121 134.758L61.1777 134.226Z" fill="#D8CFBD"/>
<path d="M67.5865 145.035C67.4042 145.714 67.0794 146.348 66.6338 146.892C66.2558 147.365 65.7429 147.712 65.1631 147.887C64.5834 148.062 63.9641 148.057 63.3875 147.872C63.2173 147.821 63.0381 147.758 62.8529 147.684C62.6678 147.609 62.4975 147.531 62.3452 147.454L62.4647 145.942C62.6285 146.04 62.7981 146.128 62.9724 146.205C63.1546 146.28 63.3248 146.349 63.486 146.402C63.8796 146.557 64.2998 146.632 64.7224 146.623C65.0795 146.618 65.4294 146.523 65.7408 146.349C66.0276 146.182 66.2536 145.927 66.3859 145.623C66.1537 145.631 65.9212 145.623 65.6901 145.599C65.4688 145.574 65.2494 145.535 65.033 145.483C64.5334 145.389 64.0627 145.18 63.6593 144.87C63.3144 144.599 63.0636 144.226 62.9425 143.804C62.8252 143.35 62.8408 142.873 62.9873 142.427C63.1293 141.903 63.3853 141.417 63.7369 141.003C64.0462 140.632 64.4511 140.353 64.9076 140.197C65.3602 140.052 65.8467 140.052 66.2993 140.197C66.788 140.332 67.2041 140.654 67.458 141.092C67.7512 141.616 67.9054 142.206 67.906 142.807C67.9204 143.564 67.8145 144.319 67.5924 145.044M64.0087 142.583C63.974 142.724 63.9791 142.873 64.0234 143.012C64.0676 143.151 64.1493 143.275 64.2595 143.371C64.5676 143.67 64.9454 143.886 65.3586 144.001C65.5587 144.067 65.7796 144.13 66.0216 144.186C66.2372 144.239 66.4555 144.28 66.6756 144.309C66.8235 143.751 66.8235 143.164 66.6756 142.607C66.6217 142.4 66.5174 142.21 66.3719 142.054C66.2265 141.897 66.0446 141.779 65.8424 141.711C65.6102 141.633 65.3613 141.621 65.1226 141.675C64.8834 141.727 64.6614 141.839 64.4776 142C64.2848 142.166 64.1274 142.37 64.0147 142.598" fill="#D8CFBD"/>
<path d="M80.6074 145.749C80.5755 146.006 80.4892 146.254 80.3543 146.475C80.2194 146.696 80.039 146.887 79.8249 147.033C79.2816 147.392 78.6578 147.612 78.0092 147.672C77.1451 147.773 76.2716 147.76 75.4109 147.633C74.4835 147.541 73.5802 147.283 72.744 146.872C72.1551 146.59 71.6708 146.129 71.3613 145.555C71.1066 145.013 71.0193 144.408 71.1104 143.816L71.2388 142.849L72.3229 142.992L72.2363 143.667C72.1851 144.028 72.268 144.396 72.4693 144.7C72.746 145.076 73.1227 145.365 73.5563 145.537C74.2139 145.812 74.9081 145.99 75.617 146.065C76.3478 146.169 77.0867 146.204 77.824 146.17C78.3047 146.161 78.7807 146.074 79.2336 145.913L79.6039 143.001L80.9449 143.177L80.6074 145.749ZM75.9664 142.165C75.9583 142.254 75.9318 142.34 75.8886 142.418C75.8454 142.496 75.7865 142.565 75.7156 142.619C75.6433 142.673 75.5607 142.712 75.4728 142.733C75.385 142.754 75.2938 142.757 75.2049 142.741C75.1142 142.733 75.0262 142.707 74.9461 142.664C74.866 142.621 74.7955 142.562 74.739 142.49C74.6854 142.42 74.6466 142.339 74.6251 142.252C74.6035 142.166 74.5996 142.077 74.6135 141.989C74.6224 141.897 74.6494 141.808 74.693 141.727C74.7366 141.646 74.7959 141.575 74.8674 141.517C75.0163 141.411 75.1997 141.365 75.3809 141.389C75.5621 141.413 75.7276 141.504 75.844 141.645C75.8979 141.719 75.9365 141.804 75.9575 141.893C75.9785 141.982 75.9816 142.075 75.9664 142.165ZM77.6687 142.389C77.6609 142.478 77.6345 142.563 77.5913 142.641C77.5481 142.719 77.489 142.787 77.4178 142.84C77.3457 142.895 77.2627 142.935 77.1742 142.957C77.0858 142.978 76.9938 142.981 76.9042 142.965C76.8138 142.959 76.7257 142.935 76.6456 142.893C76.5654 142.851 76.4949 142.792 76.4386 142.722C76.3823 142.651 76.3415 142.569 76.3189 142.481C76.2962 142.393 76.2921 142.302 76.3069 142.213C76.3154 142.121 76.3423 142.032 76.3859 141.951C76.4295 141.87 76.489 141.799 76.5607 141.741C76.6328 141.685 76.7156 141.645 76.8041 141.623C76.8925 141.601 76.9845 141.597 77.0744 141.612C77.1651 141.621 77.2529 141.648 77.3326 141.693C77.4122 141.737 77.4819 141.797 77.5373 141.869C77.5912 141.943 77.6298 142.028 77.6508 142.117C77.6719 142.206 77.6749 142.299 77.6597 142.389" fill="#D8CFBD"/>
<path d="M96.9761 147.134C92.9148 147.828 88.8009 148.167 84.6809 148.15H84.3822C83.9446 148.152 83.5145 148.037 83.1369 147.815C82.7961 147.597 82.5336 147.276 82.3873 146.899C82.2125 146.437 82.1362 145.943 82.1633 145.45L82.3305 138.88L83.7551 138.916L83.5819 145.671C83.5632 145.804 83.5761 145.939 83.6197 146.066C83.6633 146.192 83.7363 146.307 83.8327 146.4C84.1002 146.567 84.4138 146.646 84.7286 146.624C84.7286 146.624 89.5607 146.988 96.6417 145.647" fill="#D8CFBD"/>
<path d="M96.6359 145.626L98.0813 145.288C97.9508 144.685 97.9195 144.065 97.9887 143.452C98.0376 142.963 98.2205 142.497 98.5173 142.105C98.8017 141.749 99.2005 141.502 99.6462 141.406C99.8799 141.342 100.125 141.332 100.363 141.379C100.601 141.426 100.825 141.527 101.017 141.675C101.414 141.984 101.696 142.417 101.817 142.905C101.961 143.401 101.952 143.929 101.791 144.419L103.633 143.918L103.962 145.429L103.305 145.653C103.633 146.008 103.81 146.477 103.8 146.961C103.786 147.43 103.605 147.879 103.29 148.227C102.944 148.609 102.486 148.872 101.982 148.977C101.489 149.099 100.972 149.083 100.488 148.929C100.018 148.776 99.5953 148.502 99.2639 148.135C98.9097 147.744 98.6439 147.281 98.4845 146.779L96.9674 147.134M98.9802 145.273C99.434 145.225 99.882 145.133 100.318 144.999C100.602 144.926 100.851 144.753 101.017 144.512C101.097 144.389 101.151 144.251 101.175 144.107C101.199 143.963 101.193 143.815 101.157 143.673C101.097 143.364 100.935 143.084 100.697 142.878C100.592 142.78 100.463 142.71 100.323 142.674C100.184 142.638 100.037 142.637 99.8971 142.672C99.7581 142.704 99.6272 142.764 99.5126 142.849C99.3979 142.934 99.3021 143.041 99.2311 143.165C99.0624 143.457 98.9604 143.782 98.9325 144.118C98.8942 144.503 98.9093 144.892 98.9773 145.273M102.585 146.205C102.494 146.111 102.383 146.039 102.259 145.994C102.136 145.95 102.004 145.934 101.874 145.948C101.462 145.962 101.052 146.02 100.653 146.122C100.563 146.122 100.482 146.149 100.405 146.166L100.175 146.22L99.3058 146.411C99.4366 146.837 99.7017 147.209 100.061 147.472C100.229 147.603 100.42 147.701 100.625 147.758C100.83 147.815 101.045 147.832 101.256 147.806C101.608 147.802 101.952 147.699 102.247 147.507C102.502 147.362 102.697 147.132 102.797 146.856C102.833 146.74 102.833 146.616 102.796 146.501C102.76 146.385 102.69 146.283 102.594 146.208" fill="#D8CFBD"/>
<path d="M107.739 144.193C107.317 144.355 106.854 144.376 106.419 144.252C106.033 144.116 105.712 143.837 105.523 143.473L105.467 143.491C105.532 143.884 105.457 144.288 105.255 144.632C105.038 144.971 104.706 145.222 104.32 145.337L103.973 145.429L103.645 143.918L103.943 143.831C104.194 143.751 104.431 143.634 104.648 143.485C104.819 143.378 104.963 143.236 105.072 143.067C105.043 142.95 104.965 142.702 104.839 142.326C104.714 141.95 104.541 141.472 104.35 140.896L105.619 140.475L106.103 141.917C106.164 142.138 106.286 142.338 106.455 142.493C106.627 142.622 106.839 142.684 107.052 142.67C107.401 142.647 107.744 142.574 108.071 142.452L108.561 143.918L107.739 144.193ZM106.775 146.373C106.805 146.478 106.81 146.59 106.788 146.698C106.766 146.805 106.719 146.906 106.649 146.992C106.58 147.077 106.491 147.144 106.39 147.188C106.289 147.231 106.179 147.25 106.07 147.242C105.96 147.233 105.854 147.199 105.761 147.141C105.667 147.082 105.59 147.003 105.534 146.908C105.478 146.813 105.446 146.706 105.441 146.596C105.435 146.487 105.456 146.377 105.502 146.277C105.545 146.197 105.603 146.126 105.673 146.069C105.744 146.012 105.825 145.969 105.912 145.943C105.996 145.909 106.087 145.894 106.178 145.898C106.269 145.902 106.358 145.925 106.439 145.965C106.52 146.006 106.592 146.063 106.65 146.133C106.708 146.204 106.75 146.285 106.775 146.373ZM108.426 145.823C108.467 145.952 108.469 146.09 108.432 146.22C108.396 146.35 108.322 146.467 108.221 146.556C108.119 146.645 107.994 146.702 107.86 146.721C107.726 146.74 107.59 146.72 107.467 146.663C107.387 146.621 107.316 146.564 107.258 146.494C107.201 146.424 107.158 146.343 107.133 146.256C107.094 146.129 107.093 145.992 107.13 145.864C107.166 145.735 107.238 145.62 107.338 145.531C107.438 145.443 107.561 145.385 107.693 145.364C107.825 145.343 107.96 145.361 108.083 145.414C108.163 145.457 108.234 145.515 108.291 145.585C108.348 145.655 108.391 145.736 108.417 145.823" fill="#D8CFBD"/>
<path d="M109.149 137.437C109.184 137.519 109.202 137.608 109.202 137.697C109.202 137.786 109.184 137.874 109.149 137.957C109.116 138.041 109.066 138.118 109.002 138.182C108.938 138.246 108.861 138.295 108.776 138.327C108.692 138.363 108.601 138.382 108.51 138.382C108.419 138.382 108.328 138.363 108.244 138.327C108.16 138.294 108.085 138.244 108.021 138.18C107.957 138.116 107.907 138.04 107.874 137.957C107.84 137.873 107.823 137.783 107.823 137.693C107.824 137.603 107.842 137.513 107.877 137.43C107.913 137.347 107.964 137.271 108.028 137.208C108.093 137.145 108.169 137.095 108.253 137.061C108.336 137.024 108.425 137.005 108.516 137.005C108.606 137.005 108.696 137.024 108.779 137.061C108.863 137.096 108.938 137.148 109.002 137.214C109.065 137.28 109.114 137.358 109.146 137.443M112.162 142.427C111.752 142.619 111.291 142.673 110.848 142.58C110.449 142.471 110.106 142.213 109.89 141.86L109.833 141.884C109.936 142.275 109.887 142.691 109.696 143.047C109.505 143.403 109.185 143.674 108.803 143.804L108.561 143.906L108.038 142.448L108.337 142.323C108.581 142.225 108.81 142.094 109.018 141.932C109.18 141.813 109.315 141.661 109.415 141.487C109.376 141.37 109.28 141.128 109.116 140.761C108.952 140.394 108.77 139.928 108.519 139.369L109.758 138.862L110.335 140.268C110.368 140.422 110.438 140.566 110.538 140.687C110.639 140.808 110.767 140.902 110.912 140.963C111.058 141.024 111.215 141.049 111.372 141.035C111.529 141.022 111.68 140.971 111.813 140.886L112.41 142.317L112.162 142.427Z" fill="#D8CFBD"/>
<path d="M113.24 140.31C113.709 140.064 114.151 139.769 114.557 139.429C114.934 139.114 115.277 138.762 115.582 138.378C115.932 137.925 116.252 137.449 116.537 136.953H116.161C115.44 136.938 114.718 136.985 114.005 137.094C113.542 137.153 113.105 137.343 112.745 137.64C112.6 137.781 112.5 137.962 112.456 138.159C112.413 138.357 112.428 138.562 112.5 138.751L111.941 139.05C111.745 138.689 111.628 138.289 111.598 137.879C111.565 137.487 111.659 137.094 111.867 136.759C112.117 136.391 112.487 136.122 112.915 135.998C113.214 135.886 113.524 135.808 113.841 135.765C114.172 135.714 114.653 135.657 115.283 135.598C115.659 135.562 115.982 135.523 116.248 135.487C116.479 135.458 116.708 135.411 116.932 135.347C117.102 135.317 117.268 135.268 117.427 135.2C117.571 135.135 117.726 135.069 117.875 134.994L117.995 134.932L118.628 136.126L118.001 136.529L118.282 136.828C118.491 136.97 118.74 137.042 118.992 137.034C119.29 137.024 119.58 136.941 119.837 136.792L120.569 138.157L120.3 138.3C119.843 138.566 119.306 138.66 118.786 138.566C118.279 138.461 117.833 138.163 117.541 137.736L117.359 137.437L117.314 137.458C117.2 137.694 117.099 137.915 117.015 138.121C116.912 138.365 116.795 138.604 116.666 138.835C116.442 139.256 116.188 139.66 115.907 140.044C115.66 140.373 115.378 140.673 115.065 140.94C114.629 141.316 114.135 141.618 113.602 141.836L112.44 142.332L111.843 140.902L113.24 140.31ZM118.081 141.221C118.126 141.299 118.155 141.385 118.166 141.474C118.178 141.564 118.171 141.654 118.147 141.741C118.121 141.828 118.077 141.909 118.018 141.979C117.959 142.048 117.886 142.104 117.804 142.144C117.726 142.189 117.64 142.218 117.55 142.228C117.461 142.239 117.37 142.23 117.284 142.204C117.197 142.178 117.117 142.135 117.047 142.077C116.978 142.019 116.921 141.947 116.881 141.866C116.82 141.746 116.795 141.61 116.81 141.476C116.824 141.342 116.877 141.215 116.963 141.111C117.048 141.006 117.162 140.929 117.291 140.888C117.419 140.847 117.557 140.845 117.687 140.881C117.772 140.909 117.851 140.953 117.918 141.012C117.986 141.07 118.041 141.141 118.081 141.221Z" fill="#D8CFBD"/>
<path d="M119.837 136.768C120.226 136.498 120.553 136.147 120.796 135.741C120.841 135.61 120.852 135.47 120.826 135.335C120.8 135.199 120.739 135.072 120.65 134.967L116.86 129.371L118.054 128.567L121.746 134.021C122.039 134.421 122.242 134.879 122.343 135.364C122.398 135.662 122.386 135.968 122.307 136.26C122.28 136.363 122.244 136.463 122.2 136.559C122.095 136.799 121.959 137.023 121.796 137.228C121.657 137.38 121.507 137.521 121.349 137.652C121.112 137.843 120.855 138.009 120.584 138.148L119.852 136.783" fill="#D8CFBD"/>
<path d="M120.188 126.947L119.045 127.816L124.63 135.162L125.774 134.293L120.188 126.947Z" fill="#D8CFBD"/>
<path d="M134.896 125.835L134.681 126.05C134.488 126.258 134.26 126.432 134.009 126.563C133.798 126.665 133.557 126.684 133.334 126.614L133.271 126.677C133.648 127.073 133.911 127.563 134.032 128.095C134.14 128.605 134.102 129.135 133.922 129.624C133.717 130.177 133.391 130.676 132.966 131.085C132.509 131.565 131.935 131.918 131.3 132.109C130.7 132.278 130.064 132.269 129.469 132.085C128.819 131.883 128.231 131.52 127.758 131.031L127.074 130.353L127.88 129.559L128.397 130.072C128.704 130.393 129.097 130.618 129.529 130.72C129.937 130.811 130.363 130.784 130.756 130.643C131.18 130.49 131.563 130.243 131.876 129.92C132.198 129.603 132.457 129.227 132.638 128.812C132.79 128.468 132.846 128.089 132.799 127.716C132.748 127.367 132.582 127.044 132.327 126.799L126.584 121.125L127.588 120.113L132.238 124.724C132.443 124.946 132.727 125.079 133.029 125.094C133.173 125.096 133.317 125.068 133.449 125.01C133.581 124.952 133.7 124.867 133.796 124.76C133.796 124.76 137.801 120.659 139.94 116.099" fill="#D8CFBD"/>
<path d="M139.94 116.084L140.062 115.806C140.13 115.671 140.17 115.523 140.178 115.372C140.185 115.221 140.161 115.069 140.107 114.928C140.047 114.786 139.96 114.658 139.85 114.55C139.741 114.442 139.611 114.358 139.468 114.301L138.811 114.002L139.378 112.79L140.674 113.387C140.157 112.791 139.745 112.112 139.456 111.377C139.188 110.711 139.038 110.004 139.011 109.287C138.978 108.688 139.08 108.09 139.309 107.537C139.495 107.091 139.789 106.699 140.164 106.396C140.507 106.123 140.922 105.956 141.358 105.915C141.822 105.877 142.289 105.96 142.711 106.157C143.241 106.396 143.666 106.821 143.906 107.351C144.172 107.966 144.275 108.639 144.204 109.305C144.131 110.132 143.914 110.941 143.562 111.694C143.328 112.237 143.045 112.758 142.717 113.25C142.463 113.633 142.146 113.972 141.779 114.25C141.492 114.481 141.129 114.597 140.761 114.576L140.731 114.641C141.072 114.84 141.325 115.16 141.439 115.537C141.549 115.936 141.508 116.361 141.325 116.732C141.325 116.732 139.456 121.397 134.868 125.853M140.588 108.421C140.408 108.829 140.307 109.268 140.289 109.714C140.271 110.219 140.337 110.723 140.483 111.207C140.646 111.74 140.892 112.244 141.212 112.7L141.251 112.637C141.447 112.423 141.624 112.193 141.779 111.948C142.006 111.597 142.193 111.222 142.338 110.831C142.53 110.358 142.662 109.864 142.732 109.358C142.796 108.95 142.783 108.534 142.693 108.131C142.632 107.815 142.455 107.534 142.197 107.342C142.045 107.303 141.886 107.297 141.732 107.325C141.577 107.353 141.43 107.414 141.301 107.504C140.972 107.728 140.718 108.047 140.573 108.418" fill="#D8CFBD"/>
<path d="M138.133 103.878L137.374 103.657L137.518 103.164C137.395 103.236 137.259 103.279 137.117 103.29C136.966 103.305 136.814 103.29 136.669 103.245C136.518 103.207 136.377 103.137 136.254 103.041C136.131 102.945 136.029 102.824 135.956 102.687C135.884 102.55 135.841 102.4 135.828 102.246C135.815 102.092 135.833 101.937 135.881 101.791C135.914 101.665 135.972 101.548 136.052 101.445C136.131 101.343 136.231 101.257 136.344 101.193C136.588 101.063 136.873 101.029 137.141 101.098V101.265C137.008 101.299 136.889 101.375 136.804 101.483C136.701 101.609 136.629 101.757 136.595 101.916C136.541 102.077 136.541 102.251 136.595 102.412C136.613 102.484 136.651 102.549 136.704 102.602C136.756 102.654 136.822 102.692 136.893 102.711C136.984 102.736 137.08 102.739 137.172 102.721C137.264 102.702 137.351 102.662 137.425 102.603C137.611 102.463 137.744 102.264 137.801 102.039L138.058 101.164L138.864 101.399L138.133 103.878ZM145.898 105.491L138.843 103.418L139.247 102.051L146.301 104.141L145.898 105.491Z" fill="#D8CFBD"/>
<path d="M14.4036 79.5236H12.5399V86.1177H14.4036V79.5236Z" fill="#D8CFBD"/>
<path d="M19.0415 86.118V83.8214C18.6551 83.9653 18.244 84.0313 17.832 84.0155C17.2526 84.0495 16.6828 83.8567 16.2432 83.478C16.0464 83.2844 15.8933 83.051 15.7939 82.7935C15.6945 82.5361 15.6512 82.2603 15.6668 81.9848C15.6723 81.5191 15.7858 81.0612 15.9983 80.6468C16.2075 80.2125 16.5141 79.8323 16.8942 79.5358C17.2479 79.2532 17.6868 79.0985 18.1396 79.0968C18.633 79.0907 19.1141 79.2518 19.5044 79.5538C19.9226 79.8802 20.2462 80.3121 20.4421 80.8051C20.6754 81.3732 20.7902 81.9829 20.7796 82.597V86.127L19.0415 86.118ZM16.9509 81.7279C16.9509 81.8145 17.0167 81.8802 17.1451 81.922C17.3395 81.9749 17.5411 81.9971 17.7424 81.9877C18.0996 81.9915 18.4567 81.9726 18.8115 81.931C18.7242 81.7917 18.6242 81.6608 18.5129 81.5398C18.399 81.4112 18.2648 81.3023 18.1157 81.2172C17.9656 81.1285 17.7943 81.082 17.6199 81.0829C17.5017 81.0905 17.3884 81.1331 17.2944 81.2053C17.1957 81.2768 17.1132 81.3684 17.0525 81.4741C17.003 81.5546 16.9733 81.6457 16.9659 81.7399" fill="#D8CFBD"/>
<path d="M25.2293 85.7858C24.7266 85.7961 24.2291 85.6822 23.7809 85.4543C23.3744 85.2423 23.0374 84.9178 22.8103 84.5195C22.5723 84.0928 22.4528 83.6103 22.4639 83.1219C22.4607 82.5082 22.5763 81.8997 22.8043 81.33C23.0047 80.8003 23.3342 80.3291 23.763 79.9592C24.1491 79.6216 24.6448 79.4359 25.1577 79.4366C25.6796 79.4331 26.1865 79.6116 26.5912 79.9413C27.0291 80.2983 27.3675 80.7622 27.5737 81.2882C27.8105 81.8692 27.9293 82.4915 27.9231 83.1189C27.9343 83.6062 27.818 84.088 27.5857 84.5166C27.3675 84.9124 27.0398 85.2369 26.6419 85.4513C26.2066 85.6792 25.7206 85.7933 25.2293 85.7828M24.0348 83.0353C24.0347 83.0964 24.0468 83.1569 24.0704 83.2133C24.0939 83.2698 24.1286 83.3209 24.1721 83.3638C24.2847 83.4685 24.421 83.5443 24.5693 83.5848C24.7636 83.6393 24.9648 83.6655 25.1666 83.6624C25.3792 83.6652 25.5912 83.6391 25.7968 83.5848C25.9524 83.5447 26.0965 83.4691 26.2179 83.3638C26.2638 83.3222 26.3005 83.2715 26.3257 83.2149C26.3509 83.1584 26.364 83.0972 26.3642 83.0353C26.3611 82.8002 26.306 82.5687 26.2029 82.3573C26.1017 82.1355 25.9516 81.9395 25.7639 81.7839C25.5978 81.6406 25.386 81.5612 25.1666 81.5599C24.9506 81.5624 24.7444 81.6505 24.5932 81.8048C24.4169 81.9728 24.2784 82.1764 24.1871 82.4021C24.0963 82.6023 24.0466 82.8186 24.0407 83.0382" fill="#D8CFBD"/>
<path d="M31.6292 83.445C31.6336 83.6014 31.6065 83.7571 31.5496 83.9028C31.4926 84.0485 31.407 84.1812 31.2977 84.2932C31.1877 84.4056 31.0554 84.494 30.9094 84.5526C30.7634 84.6112 30.6068 84.6388 30.4496 84.6336C30.2877 84.6398 30.1262 84.6121 29.9756 84.5525C29.8249 84.4928 29.6884 84.4025 29.5745 84.2872C29.3916 84.0973 29.2753 83.8531 29.243 83.5914C29.2107 83.3297 29.2641 83.0645 29.3953 82.8358C29.501 82.6535 29.6536 82.5029 29.8373 82.3998C30.0191 82.2951 30.2249 82.2396 30.4346 82.2385C30.5908 82.2354 30.746 82.2645 30.8904 82.3241C31.0348 82.3838 31.1653 82.4725 31.2738 82.5849C31.3884 82.6966 31.4791 82.8305 31.5402 82.9784C31.6013 83.1262 31.6316 83.285 31.6292 83.445Z" fill="#D8CFBD"/>
<path d="M140.113 83.3226C140.185 83.4551 140.287 83.5686 140.411 83.6541C140.538 83.7285 140.683 83.7648 140.83 83.7586V85.3086H140.531C140.299 85.311 140.068 85.2673 139.853 85.1802C139.661 85.1036 139.493 84.9768 139.366 84.8128C139.246 84.6575 139.172 84.471 139.154 84.2753H139.1C138.995 84.4966 138.835 84.6869 138.635 84.8278C138.397 85.0093 138.135 85.1552 137.855 85.2608C137.579 85.3714 137.286 85.433 136.989 85.443C136.621 85.4761 136.25 85.4197 135.908 85.2787C135.641 85.1616 135.428 84.9484 135.311 84.6814C135.178 84.3172 135.115 83.9311 135.125 83.5436V83.4092H135.776V83.5137C135.804 83.6369 135.879 83.7441 135.986 83.8124C136.103 83.882 136.235 83.9239 136.371 83.9348C136.583 83.9521 136.797 83.9521 137.01 83.9348H137.237C137.495 83.9133 137.751 83.8683 138.001 83.8004C138.209 83.7492 138.41 83.673 138.599 83.5735L138.575 83.5018C138.564 83.4752 138.559 83.4467 138.56 83.4182L138.434 82.9224C138.393 82.7552 138.351 82.5939 138.309 82.4356C138.288 82.3729 138.267 82.3102 138.249 82.2505C138.231 82.1907 138.21 82.125 138.196 82.0623C138.112 81.8353 138.022 81.5964 137.927 81.3455C137.814 81.0545 137.686 80.7695 137.544 80.4914L138.921 79.9837C139.011 80.1729 139.097 80.361 139.181 80.5482C139.262 80.7363 139.342 80.9304 139.417 81.1216C139.492 81.3127 139.551 81.474 139.608 81.6442C139.665 81.8144 139.722 81.9727 139.769 82.125C139.817 82.2773 139.859 82.4237 139.889 82.5342C139.919 82.6447 139.949 82.782 139.975 82.9224C139.99 82.9971 140.008 83.0717 140.029 83.1434C140.047 83.2091 140.071 83.273 140.101 83.3345M138.703 78.3083C138.707 78.3953 138.693 78.4821 138.662 78.5633C138.63 78.6445 138.582 78.7184 138.521 78.7802C138.459 78.8407 138.386 78.888 138.305 78.9193C138.225 78.9506 138.139 78.9653 138.052 78.9624C137.963 78.9658 137.874 78.9515 137.79 78.9202C137.707 78.889 137.63 78.8414 137.565 78.7802C137.503 78.7191 137.454 78.6455 137.421 78.5643C137.389 78.483 137.374 78.3958 137.377 78.3083C137.373 78.219 137.388 78.1299 137.42 78.0467C137.453 77.9634 137.502 77.8877 137.565 77.8245C137.629 77.7613 137.705 77.7119 137.789 77.6795C137.873 77.6471 137.962 77.6324 138.052 77.6364C138.139 77.6331 138.226 77.6482 138.307 77.6806C138.387 77.713 138.46 77.7621 138.521 77.8245C138.583 77.8885 138.631 77.9645 138.662 78.0477C138.693 78.1308 138.707 78.2195 138.703 78.3083Z" fill="#D8CFBD"/>
<path d="M142.361 83.7549H140.746V85.3049H142.361V83.7549Z" fill="#D8CFBD"/>
<path d="M143.914 83.7549H142.299V85.3049H143.914V83.7549Z" fill="#D8CFBD"/>
<path d="M145.468 83.7549H143.852V85.3049H145.468V83.7549Z" fill="#D8CFBD"/>
<path d="M148.57 85.3084C148.166 85.3284 147.767 85.214 147.435 84.9829C147.145 84.7571 146.95 84.4294 146.892 84.066H146.841C146.782 84.4089 146.613 84.7233 146.36 84.962C146.096 85.1937 145.753 85.3146 145.402 85.2995V83.7495H145.527C145.737 83.7503 145.946 83.7272 146.151 83.6808C146.314 83.6493 146.47 83.5918 146.614 83.5106C146.614 83.4001 146.632 83.1701 146.614 82.8237C146.596 82.4772 146.614 82.0591 146.614 81.5753H147.958V82.8476C147.937 83.0973 148.015 83.3454 148.176 83.5374C148.368 83.6941 148.613 83.7701 148.86 83.7495V85.2995L148.57 85.3084ZM147.877 80.2314C147.879 80.3176 147.863 80.4033 147.831 80.4832C147.799 80.5631 147.75 80.6357 147.689 80.6965C147.628 80.7573 147.555 80.8052 147.475 80.8371C147.395 80.8691 147.31 80.8845 147.223 80.8825C147.135 80.8851 147.047 80.8701 146.964 80.8383C146.882 80.8065 146.806 80.7586 146.743 80.6973C146.68 80.6372 146.631 80.5647 146.598 80.4845C146.565 80.4043 146.549 80.3181 146.551 80.2314C146.549 80.1438 146.565 80.0567 146.598 79.9755C146.631 79.8943 146.68 79.8208 146.743 79.7596C146.806 79.697 146.881 79.6478 146.963 79.6149C147.046 79.5821 147.134 79.5663 147.223 79.5684C147.31 79.5664 147.396 79.5823 147.476 79.6152C147.557 79.6481 147.629 79.6972 147.689 79.7596C147.751 79.8214 147.799 79.8951 147.832 79.9762C147.864 80.0573 147.88 80.1441 147.877 80.2314Z" fill="#D8CFBD"/>
<path d="M154.564 82.797C154.577 83.2954 154.481 83.7905 154.284 84.2484C154.127 84.6193 153.852 84.928 153.501 85.1264C153.144 85.3137 152.733 85.3748 152.337 85.2996C151.975 85.2767 151.625 85.1638 151.318 84.9711C151.021 84.7858 150.771 84.5331 150.589 84.2335H150.527C150.455 84.4683 150.323 84.6803 150.144 84.8487C149.971 85.004 149.768 85.1219 149.547 85.1951C149.3 85.2721 149.042 85.3103 148.783 85.3086V83.7586C148.928 83.7602 149.073 83.7492 149.216 83.7258C149.318 83.709 149.418 83.6809 149.514 83.6421C149.686 83.5423 149.83 83.4005 149.932 83.23C150.099 82.9891 150.243 82.7331 150.362 82.4655C150.594 81.9588 150.928 81.5061 151.345 81.1365C151.677 80.8345 152.108 80.6636 152.558 80.6557C152.939 80.6479 153.315 80.7517 153.639 80.9543C153.942 81.1454 154.186 81.4174 154.343 81.7398C154.505 82.0692 154.585 82.433 154.576 82.8M152.525 82.1668C152.259 82.1717 152.006 82.2787 151.817 82.4655C151.576 82.6924 151.387 82.9684 151.261 83.2748C151.425 83.3864 151.597 83.4862 151.775 83.5735C151.956 83.6652 152.145 83.7411 152.34 83.8004C152.512 83.8598 152.695 83.8851 152.877 83.8751C153.023 83.8665 153.166 83.8235 153.292 83.7497C153.398 83.6848 153.484 83.5918 153.54 83.4809C153.583 83.2613 153.571 83.0345 153.504 82.8209C153.444 82.6262 153.32 82.4576 153.152 82.343C152.966 82.2214 152.747 82.1599 152.525 82.1668Z" fill="#D8CFBD"/>
<path d="M154.764 74.7275H132.667V76.2029H154.764V74.7275Z" fill="#D8CFBD"/>
<path d="M154.764 89.791H132.667V91.2663H154.764V89.791Z" fill="#D8CFBD"/>
<path d="M33.1286 74.7275H11.0316V76.2029H33.1286V74.7275Z" fill="#D8CFBD"/>
<path d="M33.1286 89.791H11.0316V91.2663H33.1286V89.791Z" fill="#D8CFBD"/>
<path d="M44.2413 38.2C43.9162 37.3341 43.4194 36.5428 42.781 35.8736L36.0764 28.5L33.7947 30.5905L40.7711 38.2598C40.9148 38.3831 41.0196 38.5457 41.0727 38.7276C41.1257 38.9094 41.1247 39.1028 41.0697 39.2841C40.8275 39.7658 40.4866 40.1911 40.0693 40.5325C34.2158 46.0574 31.4921 51.4689 31.4921 51.4689C31.3977 51.7139 31.2284 51.9229 31.0083 52.0662C30.7711 52.1994 30.5065 52.276 30.2348 52.2902C30.11 52.2932 29.9852 52.2862 29.8615 52.2693C29.7301 52.2543 29.5897 52.2334 29.4404 52.2095C29.2105 52.1647 28.9835 52.1259 28.7595 52.0901C28.5355 52.0543 28.2906 52.0214 28.0278 51.9886C27.765 51.9557 27.3947 51.9139 27.0393 51.878C26.6839 51.8422 26.3076 51.8094 25.9104 51.7885C25.5132 51.7675 25.122 51.7257 24.7158 51.7048C24.3097 51.6839 23.9244 51.669 23.5212 51.666L23.3361 54.7839C24.0289 54.7839 24.6382 54.8257 25.1668 54.8675C25.6954 54.9093 26.1852 54.9571 26.66 55.0079L27.0244 55.0736C27.1468 55.0915 27.2723 55.1094 27.3977 55.1213C27.6605 55.1542 27.9442 55.196 28.2488 55.2438L29.1746 55.4021L29.3478 55.4349C29.3938 55.4471 29.4422 55.4471 29.4882 55.4349C29.5022 55.8008 29.4701 56.1671 29.3926 56.525C29.3132 56.9516 29.1994 57.3711 29.0522 57.7793L28.8879 58.2064C28.7394 58.5848 28.5699 58.9547 28.3802 59.3143C28.2595 59.5487 28.0819 59.7489 27.8636 59.8967C27.6503 60.0334 27.3932 60.0846 27.1438 60.0401L26.9975 59.9773L26.454 61.1958L26.657 61.2854C27.413 61.6352 28.2192 61.864 29.0462 61.9633C29.6475 62.0236 30.2495 61.8563 30.7336 61.4945C31.2951 61.019 31.7163 60.3995 31.9521 59.7026C32.1619 59.1757 32.2743 58.6151 32.2835 58.0481C32.3048 57.4631 32.228 56.8786 32.0566 56.3189C31.9327 55.8516 31.691 55.4239 31.3548 55.0766L31.3936 54.9899C31.7552 55.1379 32.1537 55.1703 32.5344 55.0825C32.9363 54.9883 33.3074 54.793 33.6125 54.5151C33.9535 54.2124 34.222 53.8367 34.398 53.4161C37.1485 47.7269 42.3868 43.0769 42.3868 43.0769L43.1752 42.3602C43.7628 41.8633 44.1812 41.1958 44.3722 40.4503C44.5633 39.7048 44.5175 38.9183 44.2413 38.2Z" fill="#D8CFBD"/>
<path d="M75.2316 28.9601C75.1046 28.8292 74.9507 28.7275 74.7806 28.662C74.6104 28.5965 74.428 28.5688 74.246 28.5809C74.0634 28.586 73.8838 28.6296 73.7191 28.7089C73.5544 28.7881 73.4084 28.9012 73.2904 29.0408C73.1642 29.1848 73.0678 29.3523 73.0068 29.5338C72.9458 29.7153 72.9214 29.907 72.935 30.098C72.9381 30.2832 72.9789 30.4658 73.0549 30.6347C73.1309 30.8036 73.2405 30.9553 73.377 31.0805C73.5077 31.2051 73.6627 31.3015 73.8322 31.3636C74.0017 31.4258 74.1822 31.4524 74.3625 31.4419C74.5435 31.4397 74.722 31.3992 74.8862 31.323C75.0504 31.2468 75.1966 31.1367 75.3152 30.9999C75.4362 30.8615 75.5286 30.7005 75.587 30.5263C75.6454 30.352 75.6688 30.1678 75.6556 29.9845C75.651 29.6013 75.4991 29.2345 75.2316 28.9601Z" fill="#D8CFBD"/>
<path d="M80.2786 20.6246C79.9113 20.6037 79.5887 20.5768 79.311 20.5499C79.0494 20.5238 78.7906 20.4749 78.5375 20.4036C78.1304 20.2946 77.7313 20.1579 77.3429 19.9944C76.883 19.8093 76.3494 19.5853 75.7422 19.3225C74.7865 18.8656 73.9742 18.5042 73.2963 18.2294C72.7428 17.9893 72.1573 17.8313 71.5581 17.7606C70.8985 17.6775 70.2308 17.8309 69.6737 18.1936C69.105 18.5927 68.6608 19.1446 68.3925 19.7854C68.0563 20.5548 67.8601 21.378 67.8131 22.2164L69.1451 22.294C69.3213 21.634 69.6438 21.2308 70.1097 21.0755C70.6406 20.9216 71.2062 20.9362 71.7284 21.1174C72.4873 21.3608 73.2229 21.6716 73.9264 22.0461C74.4072 22.2881 74.9597 22.5598 75.5779 22.8615C75.1568 23.0645 74.7537 23.2557 74.3624 23.4349C74.1116 23.5483 73.4665 23.8321 72.8692 24.0321C72.0952 24.2895 71.293 24.4529 70.48 24.5189C68.2667 24.7937 66.0725 25.2046 63.9098 25.7494C61.434 26.3915 59.5824 27.2754 57.1186 28.4521C55.706 29.1241 54.5532 29.7453 53.7499 30.1962L53.3825 29.7393C52.7927 29.0092 52.0864 28.3815 51.292 27.8817C50.631 27.4614 49.8818 27.1997 49.1029 27.1172C48.4185 27.0462 47.7297 27.2003 47.1408 27.5562C46.4468 27.9601 45.8894 28.5623 45.5401 29.2853C45.198 30.0215 45.0726 30.8398 45.1787 31.6446C45.2989 32.5667 45.6189 33.4514 46.1164 34.2369C46.7456 35.2762 47.5589 35.9033 48.5564 36.1184C49.5569 36.3304 50.6469 36.1184 51.8266 35.5211C52.5398 35.1287 53.2226 34.6835 53.8693 34.1891C53.9568 34.6571 53.8952 35.1408 53.6931 35.5718C53.4616 36.0782 53.1246 36.5293 52.7046 36.8948C52.2254 37.318 51.6768 37.6555 51.0829 37.8923C50.8688 38.0021 50.6472 38.0969 50.4199 38.176C50.1853 38.2566 49.946 38.3224 49.7032 38.3731L51.6623 40.7205C51.8355 40.6638 52.0117 40.601 52.1909 40.5294C52.3701 40.4599 52.5455 40.3812 52.7165 40.2934C53.7085 39.9216 54.5995 39.3221 55.3177 38.5434C55.8975 37.8784 56.2336 37.0357 56.2704 36.1542C56.2626 35.0944 56.0155 34.05 55.5477 33.0991C56.7841 32.4092 57.8383 31.8716 58.6118 31.4864C59.8188 30.8583 61.0613 30.3008 62.3329 29.8169C63.6769 29.3242 64.9461 28.9747 65.406 28.8523C65.8659 28.7299 66.2363 28.6343 66.5588 28.5537C67.9774 28.2042 68.7568 28.0579 69.4885 27.8936C71.1221 27.5263 71.9494 27.365 72.9289 26.9021C74.1537 26.2897 75.3238 25.5733 76.4261 24.7608C76.5768 24.6422 76.7344 24.5326 76.8979 24.4323C77.2848 24.1934 77.7015 24.0067 78.1373 23.8769C78.7646 23.6858 79.4209 23.608 80.0755 23.6469L80.2786 20.6246ZM50.0765 32.663C49.656 32.8793 49.1996 33.017 48.7296 33.0692C48.4078 33.1178 48.0789 33.0579 47.7948 32.899C47.7411 32.5907 47.7411 32.2755 47.7948 31.9672C47.8452 31.6538 47.9635 31.3551 48.1413 31.0922C48.3249 30.8161 48.5784 30.5935 48.8759 30.4471C49.2326 30.2701 49.6358 30.2095 50.0287 30.2739C50.4546 30.337 50.8619 30.4908 51.2233 30.7248C51.5679 30.9363 51.8599 31.2232 52.0774 31.564C51.4337 31.9747 50.7633 32.3419 50.0705 32.663" fill="#D8CFBD"/>
</svg>
