<?xml version="1.0" ?><svg viewBox="0 0 32 32" xmlns="http://www.w3.org/2000/svg"><title/><g data-name="Layer 2" id="Layer_2"><path d="M29,8H3A1,1,0,0,0,2,9V23a1,1,0,0,0,1,1H13a1,1,0,0,0,1-.83l.66-4A1.36,1.36,0,0,1,16,18a1.37,1.37,0,0,1,1.36,1.26l.66,3.9A1,1,0,0,0,19,24H29a1,1,0,0,0,1-1V9A1,1,0,0,0,29,8ZM28,22H19.85l-.51-3a3.36,3.36,0,0,0-6.67-.06L12.15,22H4V10H28Z"/><path d="M8.5,19A3.5,3.5,0,1,0,5,15.5,3.5,3.5,0,0,0,8.5,19Zm0-5A1.5,1.5,0,1,1,7,15.5,1.5,1.5,0,0,1,8.5,14Z"/><path d="M23.5,19A3.5,3.5,0,1,0,20,15.5,3.5,3.5,0,0,0,23.5,19Zm0-5A1.5,1.5,0,1,1,22,15.5,1.5,1.5,0,0,1,23.5,14Z"/></g></svg>