<?xml version="1.0" ?><svg height="32" id="icon" viewBox="0 0 32 32" width="32" xmlns="http://www.w3.org/2000/svg"><defs><style>.cls-1{fill:none;}</style></defs><title/><rect height="2" transform="translate(10.5814 -11.7583) rotate(30)" width="4" x="25.2321" y="12.866"/><rect height="2" width="4" x="26" y="8"/><rect height="2" transform="translate(15.8301 23.4904) rotate(150)" width="4" x="2.7679" y="12.866"/><path d="M26,30H24V25a5.0059,5.0059,0,0,0-5-5H13a5.0059,5.0059,0,0,0-5,5v5H6V25a7.0082,7.0082,0,0,1,7-7h6a7.0082,7.0082,0,0,1,7,7Z"/><path d="M16,4a5,5,0,1,1-5,5,5,5,0,0,1,5-5m0-2a7,7,0,1,0,7,7A7,7,0,0,0,16,2Z"/><rect height="2" transform="translate(1.5814 14.1699) rotate(-30)" width="4" x="25.2321" y="3.134"/><rect height="2" width="4" x="2" y="8"/><rect height="2" transform="translate(6.8301 10.0981) rotate(-150)" width="4" x="2.7679" y="3.134"/><rect class="cls-1" data-name="&lt;Transparent Rectangle&gt;" height="32" id="_Transparent_Rectangle_" width="32"/></svg>