<svg width="90" height="23" viewBox="0 0 90 23" fill="none" xmlns="http://www.w3.org/2000/svg">
<path fill-rule="evenodd" clip-rule="evenodd" d="M0.675476 5.12876L10.3488 0.106689L20.126 5.12876L10.3488 10.1634L0.675476 5.12876ZM58.7469 7.56741V7.44611C58.7469 5.79353 59.7191 5.26354 61.3564 5.38093V2.35925C57.4339 2.12013 55.5748 4.08531 55.5748 7.44611V7.56741H53.8009V10.5895H55.5748V19.7372H58.7469V10.5895H62.3969V19.7372H65.569V10.5895H68.1785V7.56741H65.569V7.44611C65.569 5.79353 66.5242 5.26354 68.1785 5.38093V2.35925C64.256 2.12013 62.3969 4.08531 62.3969 7.44611V7.56741H58.7469ZM36.5748 10.8765C37.5808 10.0765 38.1947 8.93304 38.1947 7.4635C38.1947 4.6153 35.8752 2.66794 32.9587 2.66794H26.1876V19.7024H33.5044C36.4891 19.7024 38.8769 17.6894 38.8769 14.7721C38.843 13.0112 37.956 11.663 36.5748 10.8765ZM32.9757 5.8244C34.0674 5.8244 34.8178 6.6283 34.8178 7.70263C34.8178 8.78043 34.0331 9.58042 32.9757 9.58042H29.5819V5.8244H32.9757ZM33.4874 16.5807H29.5819V12.5673H33.4874C34.6474 12.5673 35.483 13.4195 35.483 14.5629C35.483 15.7242 34.6474 16.5807 33.4874 16.5807ZM48.7693 7.55002V14.1199C48.7693 16.2372 47.6098 17.1416 46.0576 17.1416C44.6246 17.1416 43.6185 16.2894 43.6185 14.6325V7.55002H40.446V15.0242C40.446 18.2676 42.4759 20.0633 45.1024 20.0633C46.7567 20.0633 48.0358 19.4459 48.7523 18.3546V19.7198H51.9245V7.55002H48.7693ZM81.3282 14.9238H72.0506C72.511 16.5285 73.841 17.2111 75.4957 17.2111C76.7405 17.2111 77.73 16.6977 78.2587 15.9981L80.8169 17.4503C79.6743 19.1063 77.8322 20.0633 75.4614 20.0633C71.3341 20.0633 68.7246 17.2633 68.7246 13.6286C68.7246 9.98954 71.351 7.18916 75.2227 7.18916C78.8557 7.18916 81.4482 10.0417 81.4482 13.6286C81.4482 14.1025 81.3969 14.5155 81.3282 14.9238ZM75.2227 10.0417C73.5175 10.0417 72.3571 10.946 71.9988 12.4977H78.2757C77.8831 10.7417 76.5531 10.0417 75.2227 10.0417ZM86.0359 9.64998V7.55002H82.8638V19.7198H86.0359V13.8982C86.0359 11.3369 88.1172 10.6069 89.7711 10.8108V7.31133C88.2194 7.31133 86.6672 7.99392 86.0359 9.64998ZM10.3488 18.7763L3.74933 15.1894L0.675476 16.8546L10.3488 22.1067L20.126 16.8546L17.0173 15.1894L10.3488 18.7763ZM3.74933 9.53303L10.3488 12.7847L17.0173 9.53303L20.126 11.0504L10.3488 15.8199L0.675476 11.0504L3.74933 9.53303Z" fill="#B19E7C"/>
</svg>
