<svg width="14" height="14" viewBox="0 0 14 14" fill="none" xmlns="http://www.w3.org/2000/svg">
<mask id="mask0_685_9317" style="mask-type:alpha" maskUnits="userSpaceOnUse" x="0" y="0" width="14" height="14">
<rect width="14" height="14" fill="#D9D9D9"/>
</mask>
<g mask="url(#mask0_685_9317)">
<path d="M6.41634 3.50041H5.24967C5.0844 3.50041 4.94585 3.4445 4.83405 3.3327C4.72224 3.22089 4.66634 3.08235 4.66634 2.91707C4.66634 2.7518 4.72224 2.61325 4.83405 2.50145C4.94585 2.38964 5.0844 2.33374 5.24967 2.33374H6.41634V1.16707C6.41634 1.0018 6.47224 0.863254 6.58405 0.751449C6.69586 0.639643 6.8344 0.58374 6.99967 0.58374C7.16495 0.58374 7.30349 0.639643 7.4153 0.751449C7.52711 0.863254 7.58301 1.0018 7.58301 1.16707V2.33374H8.74967C8.91495 2.33374 9.05349 2.38964 9.1653 2.50145C9.27711 2.61325 9.33301 2.7518 9.33301 2.91707C9.33301 3.08235 9.27711 3.22089 9.1653 3.3327C9.05349 3.4445 8.91495 3.50041 8.74967 3.50041H7.58301V4.66707C7.58301 4.83235 7.52711 4.97089 7.4153 5.0827C7.30349 5.1945 7.16495 5.25041 6.99967 5.25041C6.8344 5.25041 6.69586 5.1945 6.58405 5.0827C6.47224 4.97089 6.41634 4.83235 6.41634 4.66707V3.50041ZM4.08301 12.8337C3.76217 12.8337 3.48752 12.7195 3.25905 12.491C3.03058 12.2626 2.91634 11.9879 2.91634 11.6671C2.91634 11.3462 3.03058 11.0716 3.25905 10.8431C3.48752 10.6146 3.76217 10.5004 4.08301 10.5004C4.40384 10.5004 4.67849 10.6146 4.90697 10.8431C5.13544 11.0716 5.24967 11.3462 5.24967 11.6671C5.24967 11.9879 5.13544 12.2626 4.90697 12.491C4.67849 12.7195 4.40384 12.8337 4.08301 12.8337ZM9.91634 12.8337C9.59551 12.8337 9.32086 12.7195 9.09238 12.491C8.86391 12.2626 8.74967 11.9879 8.74967 11.6671C8.74967 11.3462 8.86391 11.0716 9.09238 10.8431C9.32086 10.6146 9.59551 10.5004 9.91634 10.5004C10.2372 10.5004 10.5118 10.6146 10.7403 10.8431C10.9688 11.0716 11.083 11.3462 11.083 11.6671C11.083 11.9879 10.9688 12.2626 10.7403 12.491C10.5118 12.7195 10.2372 12.8337 9.91634 12.8337ZM1.74967 2.33374H1.16634C1.00106 2.33374 0.862522 2.27784 0.750716 2.16603C0.638911 2.05423 0.583008 1.91568 0.583008 1.75041C0.583008 1.58513 0.638911 1.44659 0.750716 1.33478C0.862522 1.22298 1.00106 1.16707 1.16634 1.16707H2.12884C2.23579 1.16707 2.33787 1.19624 2.43509 1.25457C2.53231 1.31291 2.60523 1.39555 2.65384 1.50249L4.97259 6.41707H9.05592L11.1705 2.62541C11.2191 2.52818 11.2872 2.45527 11.3747 2.40666C11.4622 2.35805 11.5594 2.33374 11.6663 2.33374C11.89 2.33374 12.0577 2.42853 12.1695 2.61812C12.2813 2.8077 12.2837 2.99971 12.1768 3.19416L10.0913 6.97124C9.9844 7.16568 9.84099 7.31638 9.66113 7.42332C9.48127 7.53027 9.2844 7.58374 9.07051 7.58374H4.72467L4.08301 8.75041H10.4997C10.665 8.75041 10.8035 8.80631 10.9153 8.91812C11.0271 9.02992 11.083 9.16846 11.083 9.33374C11.083 9.49902 11.0271 9.63756 10.9153 9.74936C10.8035 9.86117 10.665 9.91707 10.4997 9.91707H4.08301C3.64551 9.91707 3.31252 9.72749 3.08405 9.34832C2.85558 8.96916 2.84829 8.58513 3.06217 8.19624L3.84967 6.76707L1.74967 2.33374Z" fill="white"/>
</g>
</svg>
