<svg width="56" height="56" viewBox="0 0 56 56" fill="none" xmlns="http://www.w3.org/2000/svg">
<circle cx="28" cy="28" r="26" fill="#F6EDD9" stroke="white" stroke-width="4"/>
<path d="M22.167 39.6667C21.5253 39.6667 20.976 39.4382 20.5191 38.9813C20.0621 38.5243 19.8337 37.975 19.8337 37.3334C19.8337 36.6917 20.0621 36.1424 20.5191 35.6855C20.976 35.2285 21.5253 35 22.167 35C22.8087 35 23.358 35.2285 23.8149 35.6855C24.2719 36.1424 24.5003 36.6917 24.5003 37.3334C24.5003 37.975 24.2719 38.5243 23.8149 38.9813C23.358 39.4382 22.8087 39.6667 22.167 39.6667ZM33.8337 39.6667C33.192 39.6667 32.6427 39.4382 32.1857 38.9813C31.7288 38.5243 31.5003 37.975 31.5003 37.3334C31.5003 36.6917 31.7288 36.1424 32.1857 35.6855C32.6427 35.2285 33.192 35 33.8337 35C34.4753 35 35.0246 35.2285 35.4816 35.6855C35.9385 36.1424 36.167 36.6917 36.167 37.3334C36.167 37.975 35.9385 38.5243 35.4816 38.9813C35.0246 39.4382 34.4753 39.6667 33.8337 39.6667ZM20.067 18.6667H37.2753C37.7225 18.6667 38.0628 18.866 38.2962 19.2646C38.5295 19.6632 38.5392 20.0667 38.3253 20.475L34.1837 27.9417C33.9698 28.3306 33.683 28.632 33.3232 28.8459C32.9635 29.0598 32.5698 29.1667 32.142 29.1667H23.4503L22.167 31.5H36.167V33.8334H22.167C21.292 33.8334 20.6309 33.4493 20.1837 32.6813C19.7364 31.9132 19.717 31.15 20.1253 30.3917L21.7003 27.5334L17.5003 18.6667H15.167V16.3334H18.9587L20.067 18.6667Z" fill="#D1A340"/>
</svg>
