<svg width="17" height="16" viewBox="0 0 17 16" fill="none" xmlns="http://www.w3.org/2000/svg">
<path fill-rule="evenodd" clip-rule="evenodd" d="M8.66699 16C13.0853 16 16.667 12.4183 16.667 8C16.667 3.58173 13.0853 0 8.66699 0C4.24872 0 0.666992 3.58173 0.666992 8C0.666992 12.4183 4.24872 16 8.66699 16ZM9.38128 5.14286C9.38128 4.74837 9.06148 4.42857 8.66699 4.42857C8.2725 4.42857 7.95271 4.74837 7.95271 5.14286V8C7.95271 8.1671 8.01129 8.3289 8.11826 8.45728L10.9754 11.8858C11.228 12.1889 11.6784 12.2298 11.9814 11.9773C12.2845 11.7248 12.3254 11.2744 12.0729 10.9713L9.38128 7.74139V5.14286Z" fill="#F5F5F5"/>
</svg>
