<svg width="17" height="14" viewBox="0 0 17 14" fill="none" xmlns="http://www.w3.org/2000/svg">
<path fill-rule="evenodd" clip-rule="evenodd" d="M0.666992 2.14202C0.666992 1.19524 1.4345 0.427734 2.38128 0.427734H14.9527C15.8995 0.427734 16.667 1.19524 16.667 2.14202V2.53282L9.10516 7.57493C8.99851 7.64351 8.8437 7.69245 8.66698 7.69245C8.49027 7.69245 8.33546 7.64351 8.22881 7.57493L0.666992 2.53283V2.14202ZM0.666992 4.24985V11.8563C0.666992 12.803 1.4345 13.5706 2.38128 13.5706H14.9527C15.8995 13.5706 16.667 12.803 16.667 11.8563V4.24984L9.89373 8.76615L9.88715 8.77053C9.52755 9.0046 9.09571 9.12103 8.66698 9.12103C8.23826 9.12103 7.80644 9.00457 7.44684 8.7705L7.44022 8.76618L0.666992 4.24985Z" fill="#F5F5F5"/>
</svg>
