<svg width="101" height="23" viewBox="0 0 101 23" fill="none" xmlns="http://www.w3.org/2000/svg">
<path d="M24.9647 15.605L25.583 15.4773C26.1302 15.3314 26.2762 15.2584 26.2762 14.1658V5.57825C26.2762 4.48383 26.112 4.39263 25.583 4.26677L24.9647 4.13909V3.62836H34.8456L35.028 7.25636H34.4626C34.1782 6.58375 33.8364 5.93687 33.4411 5.32288C32.8574 4.48383 32.4743 4.41087 31.2176 4.41087C30.6584 4.39314 30.0996 4.45455 29.5577 4.59327V9.24273H30.0502C31.327 9.24273 31.6188 9.09681 31.8377 8.69552C32.086 8.26102 32.2756 7.79547 32.4014 7.31108H32.9486V12.0134H32.4014C32.2601 11.5103 32.0714 11.0217 31.8377 10.5542C31.6188 10.0982 31.3817 10.007 30.0502 10.007H29.5577V13.5073C29.5577 15.1289 29.6124 15.3113 31.3817 15.3113C32.841 15.3113 33.131 15.1289 33.7329 14.2369C34.0613 13.7444 34.4078 12.9784 34.8821 11.8292H35.4658L35.2104 16.1193H24.9829L24.9647 15.6086V15.605Z" fill="#B19E7C"/>
<path d="M36.9986 8.76877C36.5791 7.74731 36.3785 7.49195 35.9224 7.34785L35.5777 7.23841V6.76416H40.9915V7.23841L40.499 7.36609C40.116 7.47553 39.9336 7.65794 39.9336 8.09571C39.9592 8.42875 40.0393 8.75534 40.1707 9.06244L41.6847 13.2194H41.7759L43.2351 9.06244C43.3723 8.7445 43.4526 8.40494 43.4722 8.05922C43.4722 7.65976 43.2898 7.45912 42.9068 7.36791L42.4143 7.24023V6.76598H45.7505V7.24023L45.4058 7.34967C44.9315 7.51384 44.7308 7.78562 44.2931 8.97124L41.5059 16.1196H39.9737L36.9986 8.76877Z" fill="#B19E7C"/>
<path d="M45.3339 11.3944C45.3339 8.25884 47.6486 6.52783 50.0363 6.52783C52.5152 6.52783 54.0657 7.76635 54.1204 11.0314H48.1721C48.2268 13.9845 49.3377 14.7852 51.1982 14.7852C52.1209 14.7809 53.0284 14.5504 53.8413 14.114V14.7141C53.3482 15.2286 52.7569 15.6389 52.1024 15.9209C51.4479 16.2029 50.7435 16.3507 50.0308 16.3557C46.8953 16.3174 45.3339 14.4569 45.3339 11.3944ZM48.1776 10.3382L51.2584 10.1741C51.2584 8.00348 50.9666 7.20272 49.8904 7.20272C48.982 7.20272 48.2524 8.07644 48.1721 10.3382H48.1776Z" fill="#B19E7C"/>
<path d="M58.8743 7.91188C59.3833 7.36467 60.423 6.47272 61.6268 6.47272C61.9904 6.48582 62.3346 6.63944 62.5871 6.90123C62.8397 7.16302 62.9808 7.51258 62.9808 7.87631C62.9808 8.24005 62.8397 8.5896 62.5871 8.85139C62.3346 9.11318 61.9904 9.2668 61.6268 9.2799C61.3552 9.28052 61.0894 9.20132 60.8624 9.05215C60.6354 8.90298 60.4572 8.69042 60.35 8.44085C60.2949 8.35706 60.2187 8.28932 60.129 8.24448C60.0393 8.19963 59.9393 8.17928 59.8393 8.18548C59.5109 8.18548 59.1297 8.42261 58.8926 8.64149V14.4784C58.8926 15.3175 58.9655 15.4087 59.5109 15.4999L60.1129 15.6275V16.12H54.9179V15.6275L55.3922 15.4999C55.9923 15.3357 56.0653 15.2445 56.0653 14.4784V8.87862C56.0653 8.11252 55.9741 8.0578 55.4652 7.71124L54.8632 7.31177V6.94697L58.65 6.5092L58.8506 6.65512L58.8141 7.89364H58.8689" fill="#B19E7C"/>
<path d="M63.5751 15.6231L64.0494 15.4954C64.6513 15.3313 64.7243 15.2401 64.7243 14.474V8.87783C64.7243 8.11174 64.6331 8.05702 64.1223 7.71045L63.5204 7.31099V6.94618L67.3126 6.50841L67.5133 6.6361L67.4768 7.78341H67.5497C68.4983 7.11035 69.6821 6.50659 70.9954 6.50659C72.5276 6.50659 73.3466 7.29093 73.3466 8.91249V14.4539C73.3466 15.2382 73.4196 15.3294 74.0033 15.4754L74.4775 15.603V16.0955H69.465V15.603L69.9028 15.4936C70.45 15.3477 70.5047 15.293 70.5047 14.4539V9.62569C70.5047 8.53127 70.1034 8.1847 69.2644 8.1847C68.6986 8.2019 68.1364 8.28142 67.588 8.42183V14.4776C67.588 15.3349 67.6428 15.3714 68.19 15.5173L68.6278 15.6268V16.1192H63.6134V15.6268L63.5751 15.6231Z" fill="#B19E7C"/>
<path d="M74.8251 11.448C74.8251 8.00242 77.2675 6.52313 79.6917 6.52313C82.3001 6.52313 84.5783 8.08998 84.5783 11.3532C84.5783 14.7988 82.1724 16.3127 79.6917 16.3127C77.0851 16.3164 74.8251 14.7477 74.8251 11.448ZM81.5741 11.5392C81.5741 7.91122 80.881 7.21991 79.6406 7.21991C78.5115 7.21991 77.8366 8.0389 77.8366 11.1379C77.8366 14.8207 78.4385 15.6232 79.75 15.6232C80.8226 15.6232 81.5705 14.9848 81.5705 11.5392H81.5741Z" fill="#B19E7C"/>
<path d="M86.1483 13.8378V7.81852H85.0192V7.3844C85.709 7.12968 86.3344 6.72641 86.851 6.20316C87.3677 5.67992 87.7629 5.04948 88.0089 4.35651H89.0303V6.76423H91.418L91.1809 7.82035H89.0303V13.6573C89.0303 14.5492 89.304 14.914 90.1959 14.914C90.632 14.9023 91.0658 14.8473 91.491 14.7499V15.2606C90.7158 15.9681 89.6964 16.3474 88.6473 16.3185C87.0239 16.3167 86.1483 15.6053 86.1483 13.8378Z" fill="#B19E7C"/>
<path d="M91.8474 11.3944C91.8474 8.25884 94.1622 6.52783 96.5499 6.52783C99.0306 6.52783 100.579 7.76635 100.634 11.0314H94.6966C94.7513 13.9845 95.864 14.7852 97.7227 14.7852C98.6454 14.7809 99.5529 14.5504 100.366 14.114V14.7141C99.8727 15.2286 99.2813 15.6389 98.6269 15.9209C97.9724 16.2029 97.268 16.3507 96.5553 16.3557C93.4015 16.3174 91.8474 14.4569 91.8474 11.3944ZM94.6729 10.3382L97.7537 10.1741C97.7537 8.00348 97.4619 7.20272 96.3857 7.20272C95.4809 7.20272 94.7513 8.07644 94.6784 10.3382H94.6729Z" fill="#B19E7C"/>
<path d="M6.68864 5.02781C6.70972 5.32147 6.62423 5.61288 6.44786 5.84863C6.21074 6.06933 5.84045 6.08757 5.62704 6.08757H3.29223C2.84197 6.07485 2.39135 6.08703 1.94243 6.12405C1.79815 6.1504 1.65738 6.19324 1.52289 6.25174C1.49553 6.26268 1.48641 6.25174 1.50465 6.2335L6.83457 0.816116C6.85281 0.797876 6.86375 0.805173 6.85281 0.834357C6.79431 0.968844 6.75146 1.10961 6.72512 1.25388C6.6881 1.7028 6.67592 2.15341 6.68864 2.60367V5.02781ZM11.641 21.4095C11.1634 21.1087 10.7887 20.6697 10.5666 20.1509C10.4008 19.732 10.3404 19.2788 10.3907 18.8311C10.4411 18.3834 10.6006 17.955 10.8553 17.5834C11.11 17.2118 11.4521 16.9084 11.8515 16.7C12.2508 16.4915 12.6953 16.3843 13.1458 16.3879C13.2538 16.3881 13.3606 16.4097 13.4601 16.4515C13.5596 16.4932 13.6499 16.5543 13.7257 16.6311C13.8015 16.7079 13.8614 16.799 13.9018 16.8991C13.9422 16.9992 13.9624 17.1063 13.9612 17.2142C13.9597 17.3605 13.9196 17.5038 13.8449 17.6297C13.7703 17.7555 13.6638 17.8595 13.5362 17.931C13.4392 17.9827 13.3345 18.0184 13.2261 18.0368C13.0131 18.053 12.8072 18.1206 12.626 18.2338C12.5264 18.3085 12.4453 18.4051 12.389 18.5161C12.3327 18.6271 12.3027 18.7496 12.3013 18.8741C12.3006 19.1404 12.4056 19.3962 12.5931 19.5854C12.7557 19.7485 12.9491 19.8777 13.162 19.9654C13.375 20.0531 13.6032 20.0975 13.8335 20.0962C14.1282 20.0964 14.4201 20.0385 14.6924 19.9259C14.9647 19.8132 15.2121 19.6479 15.4205 19.4396C15.6289 19.2312 15.7941 18.9838 15.9068 18.7114C16.0195 18.4391 16.0773 18.1473 16.0771 17.8526C16.0771 16.7399 15.3292 15.755 14.3442 15.3172C14.1497 15.2379 13.9481 15.1769 13.7423 15.1348C13.4687 15.0801 13.2133 15.0436 13.1951 15.0436C12.429 14.9524 10.5137 14.3504 10.386 12.6541C10.386 12.6541 9.82056 15.2077 8.68964 15.9009C8.55611 15.9661 8.41526 16.0151 8.2701 16.0468C8.13808 16.0761 8.00385 16.0944 7.86881 16.1015C6.0265 16.211 4.07476 15.6273 2.72495 14.241C2.72495 14.241 1.81292 13.4931 1.33866 11.3955C1.22922 10.8848 1.01033 9.97276 0.882646 9.11547C0.827924 8.80538 0.809684 8.56826 0.791443 8.34938C0.791443 7.46472 1.33866 6.85367 2.02269 6.76794H2.13031H5.74013C6.37855 6.76794 6.74336 6.60377 6.98049 6.38489C7.29058 6.09305 7.36354 5.67352 7.36354 5.18103V1.44541C7.36354 1.41987 7.36354 1.35968 7.36354 1.33779C7.44928 0.655602 8.06034 0.106567 8.94501 0.106567H9.38278C9.58485 0.107715 9.7866 0.122953 9.98655 0.152168C10.1519 0.175985 10.3158 0.209483 10.4772 0.25249C11.5899 0.529743 11.827 1.657 11.827 1.657L14.9827 2.20421C15.9859 2.38661 18.4666 2.55077 18.9409 5.0497C20.0536 10.996 19.3786 16.76 19.3239 16.76C18.5396 22.378 13.87 22.1044 13.87 22.1044C13.0749 22.0964 12.2997 21.8547 11.641 21.4095ZM15.8454 9.44927C15.2417 9.38725 14.7291 9.63167 14.5412 10.0913C14.5007 10.17 14.483 10.2585 14.4902 10.3467C14.4979 10.3677 14.5103 10.3866 14.5264 10.4021C14.5425 10.4176 14.5619 10.4292 14.5832 10.4361C14.9431 10.5622 15.3188 10.6377 15.6995 10.6604C16.2267 10.7243 16.597 10.7589 16.8359 10.7079C16.8582 10.706 16.8798 10.6992 16.8991 10.6878C16.9184 10.6764 16.9348 10.6608 16.9472 10.6422C16.9762 10.5582 16.98 10.4675 16.9581 10.3813C16.8797 9.89251 16.4456 9.53865 15.8454 9.45656V9.44927Z" fill="#B19E7C"/>
</svg>
