<svg width="20" height="20" viewBox="0 0 20 20" fill="none" xmlns="http://www.w3.org/2000/svg">
<path d="M2 5.28906H18.8792V7.40074H2V5.28906Z" stroke="#645971"/>
<path d="M2.80835 7.33093H18.0725V17.9107H2.80835V7.33093Z" stroke="#645971"/>
<path d="M9.42944 7.33093H11.4487V17.9107H9.42944V7.33093Z" stroke="#645971"/>
<mask id="path-4-inside-1_685_9333" fill="white">
<path d="M8.66275 3.09004L8.97634 2.77644L8.9648 2.76401L8.95147 2.75335L8.66275 3.09093V3.09004ZM10.8339 4.63405L8.97723 2.77644L8.34826 3.40453L10.2059 5.26124L10.8339 4.63405ZM8.95147 2.75335C8.63965 2.48506 8.33227 2.28872 7.96181 2.16435C7.59758 2.04175 7.20047 2 6.7243 2V2.88838C7.1525 2.88838 7.44211 2.92747 7.67931 3.00653C7.91029 3.08471 8.11995 3.21086 8.37313 3.42763L8.95147 2.75246V2.75335ZM6.7243 2C6.3112 2 5.97184 2.16879 5.73998 2.45307C5.51966 2.72225 5.42105 3.06606 5.40239 3.39831C5.36508 4.05127 5.62893 4.82416 6.20105 5.29145L6.76339 4.60384C6.44624 4.34444 6.2659 3.8656 6.28899 3.44895C6.30054 3.24551 6.35918 3.09981 6.42847 3.01364C6.48799 2.94168 6.57239 2.88838 6.7243 2.88838V2Z"/>
</mask>
<path d="M8.66275 3.09004L8.97634 2.77644L8.9648 2.76401L8.95147 2.75335L8.66275 3.09093V3.09004ZM10.8339 4.63405L8.97723 2.77644L8.34826 3.40453L10.2059 5.26124L10.8339 4.63405ZM8.95147 2.75335C8.63965 2.48506 8.33227 2.28872 7.96181 2.16435C7.59758 2.04175 7.20047 2 6.7243 2V2.88838C7.1525 2.88838 7.44211 2.92747 7.67931 3.00653C7.91029 3.08471 8.11995 3.21086 8.37313 3.42763L8.95147 2.75246V2.75335ZM6.7243 2C6.3112 2 5.97184 2.16879 5.73998 2.45307C5.51966 2.72225 5.42105 3.06606 5.40239 3.39831C5.36508 4.05127 5.62893 4.82416 6.20105 5.29145L6.76339 4.60384C6.44624 4.34444 6.2659 3.8656 6.28899 3.44895C6.30054 3.24551 6.35918 3.09981 6.42847 3.01364C6.48799 2.94168 6.57239 2.88838 6.7243 2.88838V2Z" fill="black"/>
<path d="M6.2243 2V2.88838H7.2243V2H6.2243ZM8.66275 3.09004L7.95564 2.38294L7.66275 2.67583V3.09004H8.66275ZM8.97634 2.77644L9.68345 3.48355L10.3648 2.80216L9.70915 2.096L8.97634 2.77644ZM8.9648 2.76401L9.6976 2.08357L9.64726 2.02935L9.58949 1.98314L8.9648 2.76401ZM8.66275 3.09093H7.66275V5.7987L9.42271 3.7409L8.66275 3.09093ZM10.8339 4.63405L11.5406 5.34165L12.2485 4.63472L11.5412 3.92711L10.8339 4.63405ZM8.97723 2.77644L9.68451 2.06951L8.9779 1.36256L8.27063 2.06884L8.97723 2.77644ZM8.34826 3.40453L7.64165 2.69692L6.93338 3.4042L7.64132 4.1118L8.34826 3.40453ZM10.2059 5.26124L9.49893 5.96852L10.2055 6.67479L10.9125 5.96885L10.2059 5.26124ZM7.96181 2.16435L7.64281 3.11211L7.64354 3.11235L7.96181 2.16435ZM7.67931 3.00653L7.99991 2.05931L7.99554 2.05785L7.67931 3.00653ZM8.37313 3.42763L7.72278 4.18726L8.48222 4.83745L9.1326 4.07817L8.37313 3.42763ZM8.95147 2.75246H9.95147V0.0478489L8.192 2.10191L8.95147 2.75246ZM5.73998 2.45307L6.51382 3.08645L6.5149 3.08512L5.73998 2.45307ZM5.40239 3.39831L6.40076 3.45536L6.40082 3.45437L5.40239 3.39831ZM6.20105 5.29145L5.56846 6.06594L6.34246 6.69812L6.97514 5.92452L6.20105 5.29145ZM6.76339 4.60384L7.53748 5.23692L8.17052 4.46287L7.39651 3.82979L6.76339 4.60384ZM6.28899 3.44895L5.2906 3.39227L5.29053 3.3936L6.28899 3.44895ZM6.42847 3.01364L5.65784 2.37621L5.64917 2.38699L6.42847 3.01364ZM9.36985 3.79715L9.68345 3.48355L8.26924 2.06934L7.95564 2.38294L9.36985 3.79715ZM9.70915 2.096L9.6976 2.08357L8.23199 3.44445L8.24354 3.45688L9.70915 2.096ZM9.58949 1.98314L9.57616 1.97247L8.32678 3.53422L8.3401 3.54488L9.58949 1.98314ZM8.19151 2.10338L7.90278 2.44096L9.42271 3.7409L9.71143 3.40331L8.19151 2.10338ZM9.66275 3.09093V3.09004H7.66275V3.09093H9.66275ZM11.5412 3.92711L9.68451 2.06951L8.26996 3.48338L10.1267 5.34098L11.5412 3.92711ZM8.27063 2.06884L7.64165 2.69692L9.05487 4.11214L9.68384 3.48405L8.27063 2.06884ZM7.64132 4.1118L9.49893 5.96852L10.9128 4.55397L9.0552 2.69725L7.64132 4.1118ZM10.9125 5.96885L11.5406 5.34165L10.1273 3.92644L9.49926 4.55364L10.9125 5.96885ZM9.60368 1.99531C9.22387 1.66852 8.80572 1.39282 8.28009 1.21635L7.64354 3.11235C7.85882 3.18462 8.05543 3.30159 8.29926 3.51138L9.60368 1.99531ZM8.28081 1.2166C7.77185 1.04529 7.25346 1 6.7243 1V3C7.14749 3 7.4233 3.03822 7.64281 3.1121L8.28081 1.2166ZM6.7243 3.88838C7.09772 3.88838 7.26806 3.92354 7.36308 3.95522L7.99554 2.05785C7.61616 1.93139 7.20728 1.88838 6.7243 1.88838V3.88838ZM7.35871 3.95375C7.43607 3.97993 7.53627 4.02758 7.72278 4.18726L9.02349 2.66799C8.70362 2.39414 8.38451 2.18949 7.99991 2.05932L7.35871 3.95375ZM9.1326 4.07817L9.71094 3.403L8.192 2.10191L7.61367 2.77708L9.1326 4.07817ZM7.95147 2.75246V2.75335H9.95147V2.75246H7.95147ZM6.7243 1C6.01682 1 5.39064 1.29923 4.96505 1.82102L6.5149 3.08512C6.53972 3.0547 6.56445 3.03674 6.58939 3.02503C6.61423 3.01335 6.65613 3 6.7243 3V1ZM4.96613 1.8197C4.57476 2.29786 4.43073 2.8655 4.40396 3.34225L6.40082 3.45437C6.41136 3.26661 6.46455 3.14664 6.51382 3.08645L4.96613 1.8197ZM4.40402 3.34126C4.35154 4.25963 4.70893 5.3639 5.56846 6.06594L6.83363 4.51696C6.54893 4.28442 6.37862 3.84291 6.40076 3.45536L4.40402 3.34126ZM6.97514 5.92452L7.53748 5.23692L5.9893 3.97077L5.42695 4.65837L6.97514 5.92452ZM7.39651 3.82979C7.39735 3.83047 7.38796 3.8228 7.37307 3.80141C7.35831 3.78019 7.34175 3.75059 7.32683 3.71336C7.29493 3.63376 7.28463 3.55537 7.28746 3.5043L5.29053 3.3936C5.25264 4.07712 5.52807 4.88534 6.13027 5.3779L7.39651 3.82979ZM7.28739 3.50563C7.28854 3.48526 7.29096 3.48839 7.28357 3.51005C7.27688 3.52967 7.25718 3.57884 7.20777 3.64029L5.64917 2.38699C5.41757 2.67501 5.31074 3.03747 5.2906 3.39227L7.28739 3.50563ZM7.19903 3.65101C7.15449 3.70486 7.0782 3.77687 6.96682 3.82918C6.85821 3.88019 6.76738 3.88838 6.7243 3.88838V1.88838C6.27551 1.88838 5.90816 2.07373 5.65791 2.37627L7.19903 3.65101Z" fill="#645971" mask="url(#path-4-inside-1_685_9333)"/>
<mask id="path-6-inside-2_685_9333" fill="white">
<path d="M12.2982 3.09004L11.9837 2.77644L11.9961 2.76401L12.0094 2.75335L12.2982 3.09093V3.09004ZM10.127 4.63405L11.9837 2.77644L12.6126 3.40453L10.755 5.26124L10.127 4.63405ZM12.0094 2.75335C12.3213 2.48506 12.6286 2.28872 12.9991 2.16435C13.3633 2.04175 13.7604 2 14.2366 2V2.88838C13.8084 2.88838 13.5188 2.92747 13.2816 3.00653C13.0506 3.08471 12.8401 3.21086 12.5878 3.42763L12.0094 2.75246V2.75335ZM14.2366 2C14.6497 2 14.9891 2.16879 15.2209 2.45307C15.4412 2.72225 15.5399 3.06606 15.5585 3.39831C15.5949 4.05127 15.3311 4.82416 14.7599 5.29145L14.1975 4.60384C14.5147 4.34444 14.695 3.8656 14.671 3.44895C14.6595 3.24551 14.6017 3.09981 14.5324 3.01364C14.4729 2.94168 14.3885 2.88838 14.2366 2.88838V2Z"/>
</mask>
<path d="M12.2982 3.09004L11.9837 2.77644L11.9961 2.76401L12.0094 2.75335L12.2982 3.09093V3.09004ZM10.127 4.63405L11.9837 2.77644L12.6126 3.40453L10.755 5.26124L10.127 4.63405ZM12.0094 2.75335C12.3213 2.48506 12.6286 2.28872 12.9991 2.16435C13.3633 2.04175 13.7604 2 14.2366 2V2.88838C13.8084 2.88838 13.5188 2.92747 13.2816 3.00653C13.0506 3.08471 12.8401 3.21086 12.5878 3.42763L12.0094 2.75246V2.75335ZM14.2366 2C14.6497 2 14.9891 2.16879 15.2209 2.45307C15.4412 2.72225 15.5399 3.06606 15.5585 3.39831C15.5949 4.05127 15.3311 4.82416 14.7599 5.29145L14.1975 4.60384C14.5147 4.34444 14.695 3.8656 14.671 3.44895C14.6595 3.24551 14.6017 3.09981 14.5324 3.01364C14.4729 2.94168 14.3885 2.88838 14.2366 2.88838V2Z" fill="black"/>
<path d="M13.7366 2V2.88838H14.7366V2H13.7366ZM12.2982 3.09004H13.2982V2.675L13.0043 2.38194L12.2982 3.09004ZM11.9837 2.77644L11.2766 2.06934L11.2764 2.06951L11.9837 2.77644ZM11.9961 2.76401L11.3714 1.98313L11.3282 2.01773L11.289 2.0569L11.9961 2.76401ZM12.2982 3.09093L11.5382 3.7409L13.2982 5.7987V3.09093H12.2982ZM10.127 4.63405L9.41968 3.92711L8.71241 4.63472L9.42035 5.34165L10.127 4.63405ZM12.6126 3.40453L13.3196 4.11181L14.0275 3.4042L13.3192 2.69692L12.6126 3.40453ZM10.755 5.26124L10.0484 5.96885L10.7554 6.67479L11.462 5.96852L10.755 5.26124ZM12.9991 2.16435L13.3174 3.11235L13.3181 3.1121L12.9991 2.16435ZM13.2816 3.00653L12.9654 2.05784L12.961 2.05932L13.2816 3.00653ZM12.5878 3.42763L11.8283 4.07817L12.4798 4.83877L13.2394 4.18613L12.5878 3.42763ZM12.0094 2.75246L12.7689 2.10191L11.0094 0.0478489V2.75246H12.0094ZM15.2209 2.45307L14.446 3.08512L14.4471 3.08645L15.2209 2.45307ZM15.5585 3.39831L16.557 3.34261L16.5569 3.34225L15.5585 3.39831ZM14.7599 5.29145L13.9858 5.92452L14.6189 6.69871L15.393 6.06546L14.7599 5.29145ZM14.1975 4.60384L13.5644 3.82979L12.7904 4.46287L13.4234 5.23692L14.1975 4.60384ZM14.671 3.44895L13.6726 3.50563L13.6727 3.50642L14.671 3.44895ZM14.5324 3.01364L15.3118 2.38693L15.303 2.37627L14.5324 3.01364ZM13.0043 2.38194L12.6898 2.06834L11.2776 3.48455L11.592 3.79815L13.0043 2.38194ZM12.6908 3.48355L12.7032 3.47111L11.289 2.0569L11.2766 2.06934L12.6908 3.48355ZM12.6208 3.54488L12.6341 3.53422L11.3847 1.97247L11.3714 1.98313L12.6208 3.54488ZM11.2495 3.40331L11.5382 3.7409L13.0581 2.44096L12.7694 2.10338L11.2495 3.40331ZM13.2982 3.09093V3.09004H11.2982V3.09093H13.2982ZM10.8342 5.34098L12.6909 3.48338L11.2764 2.06951L9.41968 3.92711L10.8342 5.34098ZM11.2771 3.48405L11.906 4.11214L13.3192 2.69692L12.6903 2.06884L11.2771 3.48405ZM11.9057 2.69725L10.0481 4.55397L11.462 5.96852L13.3196 4.11181L11.9057 2.69725ZM11.4616 4.55364L10.8336 3.92644L9.42035 5.34165L10.0484 5.96885L11.4616 4.55364ZM12.6616 3.51138C12.9055 3.30159 13.1021 3.18462 13.3174 3.11235L12.6808 1.21635C12.1552 1.39282 11.737 1.66852 11.3572 1.99531L12.6616 3.51138ZM13.3181 3.1121C13.5376 3.03822 13.8134 3 14.2366 3V1C13.7074 1 13.189 1.04529 12.6801 1.2166L13.3181 3.1121ZM14.2366 1.88838C13.7536 1.88838 13.3447 1.93139 12.9654 2.05785L13.5978 3.95522C13.6928 3.92354 13.8632 3.88838 14.2366 3.88838V1.88838ZM12.961 2.05932C12.5773 2.18919 12.2569 2.39346 11.9361 2.66913L13.2394 4.18613C13.4232 4.02826 13.524 3.98023 13.6022 3.95375L12.961 2.05932ZM13.3472 2.77708L12.7689 2.10191L11.25 3.403L11.8283 4.07817L13.3472 2.77708ZM11.0094 2.75246V2.75335H13.0094V2.75246H11.0094ZM14.2366 3C14.3048 3 14.3467 3.01335 14.3715 3.02503C14.3965 3.03674 14.4212 3.0547 14.446 3.08512L15.9959 1.82102C15.5703 1.29923 14.9441 1 14.2366 1V3ZM14.4471 3.08645C14.4963 3.14664 14.5495 3.26661 14.5601 3.45437L16.5569 3.34225C16.5302 2.8655 16.3861 2.29786 15.9948 1.8197L14.4471 3.08645ZM14.5601 3.45401C14.5817 3.84273 14.411 4.28489 14.1267 4.51744L15.393 6.06546C16.2512 5.36343 16.6081 4.2598 16.557 3.34261L14.5601 3.45401ZM15.5339 4.65837L14.9716 3.97077L13.4234 5.23692L13.9858 5.92452L15.5339 4.65837ZM14.8306 5.3779C15.4328 4.88538 15.7088 4.07664 15.6694 3.39147L13.6727 3.50642C13.6756 3.55673 13.6655 3.63451 13.6338 3.7138C13.619 3.75086 13.6025 3.78035 13.5878 3.80149C13.5729 3.82282 13.5636 3.83047 13.5644 3.82979L14.8306 5.3779ZM15.6694 3.39227C15.6495 3.04178 15.5454 2.67763 15.3117 2.38699L13.7531 3.64029C13.7025 3.57727 13.6826 3.52683 13.676 3.50745C13.6688 3.486 13.6714 3.48367 13.6726 3.50563L15.6694 3.39227ZM15.303 2.37627C15.0527 2.07373 14.6854 1.88838 14.2366 1.88838V3.88838C14.1935 3.88838 14.1027 3.88019 13.9941 3.82918C13.8827 3.77688 13.8064 3.70486 13.7619 3.65101L15.303 2.37627Z" fill="#645971" mask="url(#path-6-inside-2_685_9333)"/>
</svg>
