<svg width="17" height="24" viewBox="0 0 17 24" fill="none" xmlns="http://www.w3.org/2000/svg">
<g clip-path="url(#clip0_157_1528)">
<path fill-rule="evenodd" clip-rule="evenodd" d="M8.65599 4C11.652 4 14.1486 6.49664 14.1486 9.49269C14.1486 10.4705 13.8125 11.4348 13.3428 12.3086C12.8713 13.1857 12.247 14.0046 11.6269 14.7019C11.0056 15.4004 10.3777 15.9886 9.88859 16.4042C9.64427 16.6117 9.43042 16.7797 9.26554 16.8987C9.18412 16.9574 9.10784 17.0091 9.04199 17.0486C9.00994 17.0678 8.97089 17.09 8.92936 17.1092C8.90868 17.1187 8.87895 17.1315 8.84346 17.1428C8.81555 17.1517 8.74579 17.1726 8.65599 17.1726C8.56538 17.1726 8.49507 17.1514 8.46707 17.1423C8.4314 17.1308 8.40155 17.1179 8.38084 17.1083C8.33923 17.0888 8.30015 17.0666 8.26811 17.0471C8.20228 17.0072 8.12603 16.9551 8.04466 16.8959C7.87989 16.7762 7.66613 16.607 7.42194 16.3981C6.93304 15.98 6.30552 15.3888 5.68448 14.6884C5.06467 13.9893 4.44076 13.1696 3.96936 12.2945C3.49997 11.4232 3.1633 10.4628 3.1633 9.49269C3.1633 6.49664 5.65994 4 8.65599 4ZM8.65599 11.1331C7.75 11.1331 7.01556 10.3987 7.01556 9.49269C7.01556 8.58671 7.75 7.85227 8.65599 7.85227C9.56196 7.85227 10.2964 8.58671 10.2964 9.49269C10.2964 10.3987 9.56196 11.1331 8.65599 11.1331ZM12.1979 15.6082C12.4088 15.3711 12.6197 15.1228 12.8268 14.8648H13.3088H14.3618C14.5904 14.8648 14.797 15.001 14.887 15.2111L16.5987 19.2052C16.6744 19.3818 16.6563 19.5845 16.5506 19.7448C16.4449 19.9052 16.2656 20.0016 16.0736 20.0016H1.23842C1.04634 20.0016 0.867109 19.9052 0.76137 19.7448C0.655631 19.5845 0.637532 19.3818 0.713197 19.2052L2.42493 15.2111C2.51498 15.001 2.72157 14.8648 2.95017 14.8648H4.00312H4.49912C4.70148 15.1167 4.90748 15.3596 5.1133 15.5917C5.86933 16.4445 6.63339 17.1644 7.22821 17.673C7.52537 17.9271 7.78442 18.132 7.98281 18.2763C8.08098 18.3477 8.17113 18.4092 8.24743 18.4554C8.28469 18.478 8.32816 18.5027 8.37322 18.5237C8.39567 18.5342 8.42701 18.5477 8.46394 18.5596C8.49321 18.5691 8.56455 18.5906 8.65592 18.5906C8.74651 18.5906 8.8173 18.5694 8.84647 18.5602C8.88322 18.5484 8.91445 18.535 8.93685 18.5246C8.98185 18.5038 9.02527 18.4794 9.06254 18.457C9.13887 18.4111 9.22904 18.3501 9.32726 18.2792C9.52577 18.136 9.78492 17.9326 10.0822 17.68C10.6773 17.1746 11.4416 16.4584 12.1979 15.6082Z" fill="#F5F5F5"/>
</g>
<defs>
<clipPath id="clip0_157_1528">
<rect width="15.9779" height="24.0016" fill="white" transform="translate(0.666992)"/>
</clipPath>
</defs>
</svg>
