<svg width="47" height="46" viewBox="0 0 47 46" fill="none" xmlns="http://www.w3.org/2000/svg">
<mask id="mask0_685_8374" style="mask-type:alpha" maskUnits="userSpaceOnUse" x="0" y="0" width="47" height="46">
<rect x="0.166626" width="46" height="46" fill="#D9D9D9"/>
</mask>
<g mask="url(#mask0_685_8374)">
<path d="M26.5208 24.3638C25.1817 24.3638 24.0483 23.8999 23.1207 22.9723C22.193 22.0446 21.7292 20.9112 21.7292 19.5721C21.7292 18.233 22.193 17.0996 23.1207 16.1719C24.0483 15.2443 25.1817 14.7804 26.5208 14.7804C27.86 14.7804 28.9933 15.2443 29.921 16.1719C30.8487 17.0996 31.3125 18.233 31.3125 19.5721C31.3125 20.9112 30.8487 22.0446 29.921 22.9723C28.9933 23.8999 27.86 24.3638 26.5208 24.3638ZM13.878 30.2982C12.9254 30.2982 12.1099 29.959 11.4314 29.2805C10.7529 28.602 10.4137 27.7863 10.4137 26.8334V12.3108C10.4137 11.3582 10.7529 10.5427 11.4314 9.86419C12.1099 9.18569 12.9254 8.84644 13.878 8.84644H39.1632C40.1161 8.84644 40.9318 9.18569 41.6103 9.86419C42.2888 10.5427 42.628 11.3582 42.628 12.3108V26.8334C42.628 27.7863 42.2888 28.602 41.6103 29.2805C40.9318 29.959 40.1161 30.2982 39.1632 30.2982H13.878ZM16.753 27.4232H36.2887C36.2887 26.4675 36.6279 25.651 37.3064 24.9737C37.9849 24.2968 38.8004 23.9584 39.753 23.9584V15.1858C38.7973 15.1858 37.9809 14.8466 37.304 14.1681C36.6271 13.4896 36.2887 12.674 36.2887 11.7214H16.753C16.753 12.6772 16.4138 13.4936 15.7353 14.1705C15.0568 14.8474 14.2412 15.1858 13.2887 15.1858V23.9584C14.2444 23.9584 15.0608 24.2976 15.7377 24.9761C16.4146 25.6546 16.753 26.4703 16.753 27.4232ZM35.4774 37.0066H7.17018C6.21727 37.0066 5.40157 36.6673 4.72307 35.9888C4.04457 35.3103 3.70532 34.4946 3.70532 33.5417V15.997C3.70532 15.5897 3.84316 15.2483 4.11884 14.9726C4.39452 14.6972 4.73601 14.5595 5.1433 14.5595C5.55091 14.5595 5.89224 14.6972 6.16728 14.9726C6.44264 15.2483 6.58032 15.5897 6.58032 15.997V33.5417C6.58032 33.689 6.64166 33.8241 6.76432 33.9471C6.88731 34.0701 7.02259 34.1316 7.17018 34.1316H35.4774C35.8847 34.1316 36.2262 34.2694 36.5019 34.5451C36.7772 34.8205 36.9149 35.1619 36.9149 35.5696C36.9149 35.9772 36.7772 36.3185 36.5019 36.5935C36.2262 36.8689 35.8847 37.0066 35.4774 37.0066ZM13.878 27.4232H13.2887V11.7214H13.878C13.7183 11.7214 13.5801 11.7797 13.4636 11.8963C13.347 12.0129 13.2887 12.1511 13.2887 12.3108V26.8334C13.2887 26.9931 13.347 27.1313 13.4636 27.2479C13.5801 27.3648 13.7183 27.4232 13.878 27.4232Z" fill="white"/>
</g>
</svg>
