<svg width="56" height="56" viewBox="0 0 56 56" fill="none" xmlns="http://www.w3.org/2000/svg">
<circle cx="28" cy="28" r="26" fill="#F6EDD9" stroke="white" stroke-width="4"/>
<path d="M21 38.5V36.1666L21.4812 35.875C21.8021 35.6805 22.1521 35.3937 22.5312 35.0145C22.9104 34.6354 23.2556 34.1493 23.5667 33.5562C23.8778 32.9632 24.0333 32.2777 24.0333 31.5C24.0333 31.2861 24.0187 31.0819 23.9896 30.8875C23.9604 30.693 23.9264 30.5083 23.8875 30.3333H21V28H22.75C22.3417 27.3583 21.9479 26.6826 21.5688 25.9729C21.1896 25.2632 21 24.3833 21 23.3333C21 21.5444 21.6222 20.0277 22.8667 18.7833C24.1111 17.5388 25.6278 16.9166 27.4167 16.9166C28.7972 16.9166 30.0222 17.2958 31.0917 18.0541C32.1611 18.8125 32.9292 19.7944 33.3958 21L31.2375 21.9041C30.9458 21.1263 30.4549 20.4895 29.7646 19.9937C29.0743 19.4979 28.2917 19.25 27.4167 19.25C26.2889 19.25 25.3264 19.6486 24.5292 20.4458C23.7319 21.243 23.3333 22.2055 23.3333 23.3333C23.3333 24.2666 23.5667 25.0444 24.0333 25.6666C24.5 26.2888 24.9764 27.0666 25.4625 28H30.3333V30.3333H26.2792C26.3181 30.5083 26.3424 30.693 26.3521 30.8875C26.3618 31.0819 26.3667 31.2861 26.3667 31.5C26.3667 32.4722 26.1965 33.3472 25.8562 34.125C25.516 34.9027 25.1028 35.5833 24.6167 36.1666H30.3333C31.1111 36.1666 31.7042 35.9625 32.1125 35.5541C32.5208 35.1458 32.8028 34.6208 32.9583 33.9791L35 35C34.7861 36.0694 34.2368 36.9201 33.3521 37.552C32.4674 38.184 31.4611 38.5 30.3333 38.5H21Z" fill="#D1A340"/>
</svg>
