<svg width="83" height="23" viewBox="0 0 83 23" fill="none" xmlns="http://www.w3.org/2000/svg">
<path d="M54.784 0.106689H51.3359V19.391C54.4695 19.4989 57.59 19.6569 60.6978 19.8641V16.4666C58.7319 16.3355 56.7608 16.2244 54.784 16.1323V0.106689ZM82.1867 0.10864H78.399L75.9023 5.89567L73.6592 0.10864H69.9282L73.9375 10.4493L69.561 20.5938C70.7717 20.7118 71.9791 20.8379 73.1852 20.971L75.7307 15.0726L78.2515 21.5747C79.5644 21.7435 80.8738 21.9197 82.181 22.1062L82.1867 22.104L77.6949 10.5191L82.1867 0.10864ZM39.4995 19.2225L42.9478 19.2218V11.3774H47.6221V7.97989H42.9478V3.53692H49.1255V0.108813H39.4995V19.2225ZM26.6231 3.53669H30.232V19.4245C31.3794 19.3812 32.5292 19.3455 33.6801 19.3153V3.53669H37.2889V0.10864H26.6231V3.53669ZM14.8345 20.412C18.0126 20.1232 21.2054 19.8851 24.4126 19.7004V16.3025C22.3635 16.4209 20.3201 16.5612 18.2827 16.7214V11.5776C19.6195 11.5643 21.3798 11.5235 22.9393 11.5429V8.14509C21.6934 8.14205 19.691 8.16248 18.2827 8.1805V3.53692H24.4126V0.108813H14.8345V20.412ZM8.07058 12.5574L3.57957 0.10864H0.30249V22.1067C1.44967 21.9434 2.59903 21.787 3.75063 21.637V9.67455L7.7439 21.1458C8.99988 21.0002 10.2581 20.8622 11.5188 20.7326V0.10864H8.07058V12.5574ZM63.5405 20.0687C64.6916 20.1568 65.8409 20.2513 66.9891 20.3534V0.10864H63.5405V20.0687Z" fill="#B19E7C"/>
</svg>
