<svg width="56" height="56" viewBox="0 0 56 56" fill="none" xmlns="http://www.w3.org/2000/svg">
<circle cx="28" cy="28" r="26" fill="#F6EDD9" stroke="white" stroke-width="4"/>
<path d="M26.8333 39.3459V28.6709L17.5 23.275V32.6375C17.5 33.0653 17.6021 33.4542 17.8063 33.8042C18.0104 34.1542 18.2972 34.4362 18.6667 34.65L26.8333 39.3459ZM29.1667 39.3459L37.3333 34.65C37.7028 34.4362 37.9896 34.1542 38.1938 33.8042C38.3979 33.4542 38.5 33.0653 38.5 32.6375V23.275L29.1667 28.6709V39.3459ZM33.8042 23.3042L37.2458 21.2917L29.1667 16.6542C28.7972 16.4403 28.4083 16.3334 28 16.3334C27.5917 16.3334 27.2028 16.4403 26.8333 16.6542L24.5292 17.9667L33.8042 23.3042ZM28 26.6584L31.4708 24.675L22.225 19.3084L18.725 21.3209L28 26.6584Z" fill="#D1A340"/>
</svg>
