<svg width="17" height="16" viewBox="0 0 17 16" fill="none" xmlns="http://www.w3.org/2000/svg">
<path fill-rule="evenodd" clip-rule="evenodd" d="M9.86845 0.984096C9.86845 0.510709 9.48469 0.126953 9.0113 0.126953C7.9232 0.126953 6.84576 0.341269 5.84049 0.757665C4.83523 1.17406 3.92182 1.78438 3.15241 2.55378C2.38302 3.32318 1.77269 4.23659 1.3563 5.24186C0.939902 6.24713 0.725586 7.32457 0.725586 8.41266C0.725586 8.88606 1.10934 9.2698 1.58273 9.2698C2.05612 9.2698 2.43988 8.88606 2.43988 8.41266C2.43988 7.54969 2.60984 6.69518 2.94009 5.89789C3.27033 5.10061 3.75438 4.37618 4.3646 3.76597C4.97481 3.15575 5.69924 2.6717 6.49653 2.34146C7.29381 2.01121 8.14832 1.84123 9.0113 1.84123C9.48469 1.84123 9.86845 1.45749 9.86845 0.984096ZM8.64114 15.3831C8.04869 15.7646 7.34351 15.9318 6.64284 15.8569C5.94217 15.7821 5.28823 15.4697 4.78972 14.9717L4.35543 14.5374C4.16281 14.3426 4.05477 14.0798 4.05477 13.806C4.05477 13.532 4.16281 13.2693 4.35543 13.0745L6.184 11.2574C6.37677 11.0655 6.63771 10.9577 6.90972 10.9577C7.18174 10.9577 7.44268 11.0655 7.63543 11.2574C7.83014 11.45 8.09297 11.5581 8.36686 11.5581C8.64076 11.5581 8.90359 11.45 9.09829 11.2574L12.0126 8.34309C12.2052 8.14838 12.3132 7.88554 12.3132 7.61166C12.3132 7.33777 12.2052 7.07494 12.0126 6.88023C11.8207 6.68746 11.7129 6.42653 11.7129 6.15451C11.7129 5.8825 11.8207 5.62157 12.0126 5.4288L13.7726 3.60023C13.9673 3.4076 14.2302 3.29957 14.504 3.29957C14.7779 3.29957 15.0408 3.4076 15.2354 3.60023L15.6697 4.03451C16.1767 4.52599 16.4998 5.17646 16.585 5.87737C16.6703 6.57829 16.5127 7.28726 16.1383 7.88594C14.1455 10.8445 11.5998 13.3903 8.64114 15.3831ZM9.37012 3.43265C9.8435 3.43265 10.2273 3.81641 10.2273 4.28979C10.2273 4.76318 9.8435 5.14694 9.37012 5.14694C8.38503 5.14694 7.44029 5.53826 6.74372 6.23482C6.04716 6.93139 5.65583 7.87614 5.65583 8.86122C5.65583 9.33461 5.27207 9.71837 4.79869 9.71837C4.32531 9.71837 3.94155 9.33461 3.94155 8.86122C3.94155 7.42147 4.51348 6.0407 5.53153 5.02264C6.54959 4.00458 7.93037 3.43265 9.37012 3.43265Z" fill="#F5F5F5"/>
</svg>
