<svg width="47" height="46" viewBox="0 0 47 46" fill="none" xmlns="http://www.w3.org/2000/svg">
<mask id="mask0_685_8364" style="mask-type:alpha" maskUnits="userSpaceOnUse" x="0" y="0" width="47" height="46">
<rect x="0.333252" width="46" height="46" fill="#D9D9D9"/>
</mask>
<g mask="url(#mask0_685_8364)">
<path d="M21.3209 25.0422L18.2102 21.9607C17.9447 21.6952 17.616 21.5595 17.224 21.5534C16.8321 21.5473 16.4874 21.6929 16.19 21.9899C15.9124 22.2679 15.7736 22.6045 15.7736 23C15.7736 23.3955 15.9124 23.7322 16.19 24.0101L20.1081 27.9282C20.4547 28.2745 20.859 28.4477 21.3209 28.4477C21.7828 28.4477 22.1871 28.2745 22.5337 27.9282L30.4768 19.9851C30.7618 19.6998 30.9023 19.3662 30.8985 18.9841C30.895 18.6021 30.7544 18.2623 30.4768 17.9649C30.1794 17.6679 29.8378 17.5144 29.4519 17.5045C29.0663 17.4946 28.7248 17.6383 28.4274 17.9357L21.3209 25.0422ZM16.4521 40.6003L13.8018 36.144L8.78879 35.0674C8.35882 34.984 8.01541 34.758 7.75858 34.3893C7.50175 34.0207 7.3992 33.6214 7.45095 33.1914L7.94114 28.0351L4.53187 24.1352C4.23702 23.8208 4.0896 23.4424 4.0896 23C4.0896 22.5576 4.23702 22.1792 4.53187 21.8649L7.94114 17.9649L7.45095 12.8086C7.3992 12.3787 7.50175 11.9793 7.75858 11.6107C8.01541 11.2421 8.35882 11.0161 8.78879 10.9327L13.8018 9.856L16.4521 5.39975C16.6831 5.02153 16.9976 4.76357 17.3956 4.62589C17.7936 4.48821 18.1979 4.50914 18.6084 4.68866L23.3334 6.68631L28.0585 4.68866C28.469 4.50914 28.8732 4.48821 29.2712 4.62589C29.6693 4.76357 29.9838 5.02153 30.2147 5.39975L32.865 9.856L37.878 10.9327C38.308 11.0161 38.6514 11.2421 38.9082 11.6107C39.1651 11.9793 39.2676 12.3787 39.2159 12.8086L38.7257 17.9649L42.135 21.8649C42.4298 22.1792 42.5772 22.5576 42.5772 23C42.5772 23.4424 42.4298 23.8208 42.135 24.1352L38.7257 28.0351L39.2159 33.1914C39.2676 33.6214 39.1651 34.0207 38.9082 34.3893C38.6514 34.758 38.308 34.984 37.878 35.0674L32.865 36.144L30.2147 40.6003C29.9838 40.9785 29.6693 41.2365 29.2712 41.3741C28.8732 41.5118 28.469 41.4909 28.0585 41.3114L23.3334 39.3137L18.6084 41.3114C18.1979 41.4909 17.7936 41.5118 17.3956 41.3741C16.9976 41.2365 16.6831 40.9785 16.4521 40.6003ZM18.4459 38.2375L23.3334 36.1661L28.2799 38.2375L31.0001 33.6375L36.2709 32.4286L35.7917 27.025L39.3376 23L35.7917 18.9161L36.2709 13.5125L31.0001 12.3625L28.2209 7.76252L23.3334 9.83396L18.387 7.76252L15.6667 12.3625L10.3959 13.5125L10.8751 18.9161L7.32925 23L10.8751 27.025L10.3959 32.4875L15.6667 33.6375L18.4459 38.2375Z" fill="white"/>
</g>
</svg>
