<svg width="24" height="24" viewBox="0 0 24 24" fill="none" xmlns="http://www.w3.org/2000/svg">
<path d="M12 4C7.58172 4 4 7.58172 4 12C4 16.4183 7.58172 20 12 20C16.4183 20 20 16.4183 20 12C20 7.58172 16.4183 4 12 4Z" stroke="#9E865B" stroke-width="1.5" stroke-linecap="round" stroke-linejoin="round"/>
<path d="M12 9C10.3431 9 9 10.3431 9 12C9 13.6569 10.3431 15 12 15C13.6569 15 15 13.6569 15 12C15 10.3431 13.6569 9 12 9Z" stroke="#9E865B" stroke-width="1.5" stroke-linecap="round" stroke-linejoin="round"/>
<path d="M12 9C10.3431 9 9 10.3431 9 12C9 13.6569 10.3431 15 12 15C13.6569 15 15 13.6569 15 12C15 10.3431 13.6569 9 12 9Z" stroke="#9E865B" stroke-width="1.5" stroke-linecap="round" stroke-linejoin="round"/>
<path d="M12 10C10.8954 10 10 10.8954 10 12C10 13.1046 10.8954 14 12 14C13.1046 14 14 13.1046 14 12C14 10.8954 13.1046 10 12 10Z" stroke="#9E865B" stroke-width="1.5" stroke-linecap="round" stroke-linejoin="round"/>
<path d="M12 11C11.4477 11 11 11.4477 11 12C11 12.5523 11.4477 13 12 13C12.5523 13 13 12.5523 13 12C13 11.4477 12.5523 11 12 11Z" stroke="#9E865B" stroke-width="1.5" stroke-linecap="round" stroke-linejoin="round"/>
<path d="M12.5 13C12.2239 13 12 12.7761 12 12.5C12 12.2239 12.2239 12 12.5 12C12.7761 12 13 12.2239 13 12.5C13 12.7761 12.7761 13 12.5 13Z" stroke="#9E865B" stroke-width="1.5" stroke-linecap="round" stroke-linejoin="round"/>
</svg>
