<svg width="47" height="46" viewBox="0 0 47 46" fill="none" xmlns="http://www.w3.org/2000/svg">
<mask id="mask0_685_8369" style="mask-type:alpha" maskUnits="userSpaceOnUse" x="0" y="0" width="47" height="46">
<rect x="0.5" width="46" height="46" fill="#D9D9D9"/>
</mask>
<g mask="url(#mask0_685_8369)">
<path d="M23.5 25.3959L26.9831 28.0682C27.1626 28.2154 27.3389 28.2234 27.5121 28.0921C27.6852 27.9605 27.7398 27.7952 27.6759 27.5962L26.3161 23.2358L30.0646 20.3057C30.2243 20.1705 30.2692 20.0084 30.1992 19.8193C30.129 19.6299 29.9943 19.5352 29.7953 19.5352H25.3501L23.9241 15.0899C23.8602 14.8909 23.7188 14.7914 23.5 14.7914C23.2812 14.7914 23.1398 14.8909 23.0759 15.0899L21.6499 19.5352H17.2047C17.0057 19.5352 16.8663 19.6299 16.7864 19.8193C16.7065 20.0084 16.7465 20.1705 16.9062 20.3057L20.5881 23.2358L19.2282 27.6628C19.1643 27.8618 19.219 28.027 19.3921 28.1583C19.5652 28.2899 19.7416 28.2819 19.9211 28.1343L23.5 25.3959ZM23.5 40.9611C23.301 40.9611 23.1056 40.9451 22.914 40.9132C22.7223 40.8812 22.5367 40.8333 22.3572 40.7694C18.3153 39.3319 15.0994 36.7833 12.7096 33.1234C10.3199 29.4632 9.125 25.5137 9.125 21.275V12.6428C9.125 11.9177 9.33519 11.2635 9.75558 10.6802C10.1757 10.0965 10.7162 9.67328 11.3771 9.41038L22.2872 5.33746C22.6977 5.18988 23.102 5.11609 23.5 5.11609C23.898 5.11609 24.3023 5.18988 24.7128 5.33746L35.6229 9.41038C36.2838 9.67328 36.8243 10.0965 37.2444 10.6802C37.6648 11.2635 37.875 11.9177 37.875 12.6428V21.275C37.875 25.5137 36.6801 29.4632 34.2904 33.1234C31.9006 36.7833 28.6847 39.3319 24.6428 40.7694C24.4633 40.8333 24.2777 40.8812 24.086 40.9132C23.8944 40.9451 23.699 40.9611 23.5 40.9611ZM23.5 38.1417C26.8222 37.0875 29.5694 34.9792 31.7417 31.8167C33.9139 28.6542 35 25.1403 35 21.275V12.6242C35 12.5015 34.9661 12.391 34.8984 12.2926C34.831 12.1942 34.7358 12.1204 34.6128 12.0712L23.7027 7.99827C23.6414 7.97368 23.5738 7.96138 23.5 7.96138C23.4262 7.96138 23.3586 7.97368 23.2973 7.99827L12.3872 12.0712C12.2642 12.1204 12.169 12.1942 12.1016 12.2926C12.0339 12.391 12 12.5015 12 12.6242V21.275C12 25.1403 13.0861 28.6542 15.2583 31.8167C17.4306 34.9792 20.1778 37.0875 23.5 38.1417Z" fill="white"/>
</g>
</svg>
