<svg width="56" height="56" viewBox="0 0 56 56" fill="none" xmlns="http://www.w3.org/2000/svg">
<circle cx="28" cy="28" r="26" fill="#F6EDD9" stroke="white" stroke-width="4"/>
<path d="M14.583 29.5458L15.1663 27.2125H21.583L20.9997 29.5458H14.583ZM22.1663 37.3333C21.1941 37.3333 20.3677 36.993 19.6872 36.3125C19.0066 35.6319 18.6663 34.8055 18.6663 33.8333H15.7497L16.333 31.2958H22.3705L23.4205 27.0375H25.8705L27.3288 21.2041H19.2497L19.4247 20.5041C19.5413 19.9597 19.8087 19.5173 20.2268 19.177C20.6448 18.8368 21.1358 18.6666 21.6997 18.6666H34.9997L33.9205 23.3333H37.333L40.833 28L39.6663 33.8333H37.333C37.333 34.8055 36.9927 35.6319 36.3122 36.3125C35.6316 36.993 34.8052 37.3333 33.833 37.3333C32.8608 37.3333 32.0344 36.993 31.3538 36.3125C30.6733 35.6319 30.333 34.8055 30.333 33.8333H25.6663C25.6663 34.8055 25.3261 35.6319 24.6455 36.3125C23.965 36.993 23.1386 37.3333 22.1663 37.3333ZM16.9163 25.2875L17.4997 22.9541H25.083L24.4997 25.2875H16.9163ZM22.1663 35C22.4969 35 22.774 34.8882 22.9976 34.6645C23.2212 34.4409 23.333 34.1638 23.333 33.8333C23.333 33.5027 23.2212 33.2257 22.9976 33.002C22.774 32.7784 22.4969 32.6666 22.1663 32.6666C21.8358 32.6666 21.5587 32.7784 21.3351 33.002C21.1115 33.2257 20.9997 33.5027 20.9997 33.8333C20.9997 34.1638 21.1115 34.4409 21.3351 34.6645C21.5587 34.8882 21.8358 35 22.1663 35ZM33.833 35C34.1636 35 34.4406 34.8882 34.6643 34.6645C34.8879 34.4409 34.9997 34.1638 34.9997 33.8333C34.9997 33.5027 34.8879 33.2257 34.6643 33.002C34.4406 32.7784 34.1636 32.6666 33.833 32.6666C33.5025 32.6666 33.2254 32.7784 33.0018 33.002C32.7781 33.2257 32.6663 33.5027 32.6663 33.8333C32.6663 34.1638 32.7781 34.4409 33.0018 34.6645C33.2254 34.8882 33.5025 35 33.833 35ZM32.5788 29.1666H38.208L38.3247 28.5541L36.1663 25.6666H33.3955L32.5788 29.1666Z" fill="#D1A340"/>
</svg>
