<svg width="20" height="20" viewBox="0 0 20 20" fill="none" xmlns="http://www.w3.org/2000/svg">
<path fill-rule="evenodd" clip-rule="evenodd" d="M6.73986 15.6514C6.73986 16.4514 6.09058 17.1006 5.29058 17.1006C4.49058 17.1006 3.84131 16.4514 3.84131 15.6514C3.84131 14.8514 4.49058 14.2021 5.29058 14.2021C6.09058 14.2021 6.73986 14.8514 6.73986 15.6514Z" stroke="#645971" stroke-linecap="round" stroke-linejoin="round"/>
<path fill-rule="evenodd" clip-rule="evenodd" d="M16.8844 15.6514C16.8844 16.4514 16.2351 17.1006 15.4351 17.1006C14.6351 17.1006 13.9858 16.4514 13.9858 15.6514C13.9858 14.8514 14.6351 14.2021 15.4351 14.2021C16.2351 14.2021 16.8844 14.8514 16.8844 15.6514Z" stroke="#645971" stroke-linecap="round" stroke-linejoin="round"/>
<path d="M16.8842 15.6508H17.6087C18.0095 15.6508 18.3334 15.3261 18.3334 14.9261V11.3029L16.8653 7.19207C16.6587 6.61525 16.1132 6.23047 15.5008 6.23047H12.5363V12.7522H1.66675V14.9261C1.66675 15.3261 1.99066 15.6508 2.39139 15.6508H3.84066" stroke="#645971" stroke-linecap="round" stroke-linejoin="round"/>
<path d="M6.73975 15.6514H13.9861" stroke="#645971" stroke-linecap="round" stroke-linejoin="round"/>
<path d="M1.6665 12.7533V4.78228C1.6665 3.98228 2.31578 3.33301 3.11578 3.33301H11.0868C11.8868 3.33301 12.5361 3.98228 12.5361 4.78228V6.23156" stroke="#645971" stroke-linecap="round" stroke-linejoin="round"/>
<path d="M13.9858 7.68262V10.5812H16.5221" stroke="#645971" stroke-linecap="round" stroke-linejoin="round"/>
</svg>
