<svg width="76" height="24" viewBox="0 0 76 24" fill="none" xmlns="http://www.w3.org/2000/svg">
<rect x="0.5" y="0.5" width="33" height="23" rx="3.5" fill="white"/>
<rect x="0.5" y="0.5" width="33" height="23" rx="3.5" stroke="#E0DDE4"/>
<path fill-rule="evenodd" clip-rule="evenodd" d="M10.7501 15.8579H8.69031L7.14576 9.79198C7.07245 9.51295 6.91679 9.26627 6.68782 9.15001C6.11639 8.85784 5.48672 8.62531 4.7998 8.50804V8.2745H8.11789C8.57583 8.2745 8.91929 8.62531 8.97653 9.03274L9.77793 13.4083L11.8367 8.2745H13.8392L10.7501 15.8579ZM14.984 15.8579H13.0388L14.6406 8.2745H16.5858L14.984 15.8579ZM19.1025 10.3753C19.1597 9.96689 19.5032 9.73335 19.9039 9.73335C20.5336 9.67471 21.2195 9.79199 21.7919 10.0832L22.1354 8.45042C21.5629 8.21688 20.9333 8.09961 20.3619 8.09961C18.4738 8.09961 17.1 9.15002 17.1 10.6078C17.1 11.7169 18.0731 12.2992 18.7601 12.65C19.5032 12.9998 19.7894 13.2334 19.7322 13.5832C19.7322 14.1079 19.1597 14.3414 18.5883 14.3414C17.9014 14.3414 17.2145 14.1665 16.5858 13.8743L16.2424 15.5081C16.9293 15.7992 17.6724 15.9165 18.3594 15.9165C20.4763 15.9741 21.7919 14.9247 21.7919 13.3496C21.7919 11.3661 19.1025 11.2498 19.1025 10.3753ZM28.5998 15.8579L27.0553 8.2745H25.3962C25.0528 8.2745 24.7093 8.50804 24.5948 8.85784L21.7347 15.8579H23.7372L24.1369 14.7498H26.5973L26.8263 15.8579H28.5998ZM25.6827 10.3164L26.2541 13.1744H24.6523L25.6827 10.3164Z" fill="#172B85"/>
<rect x="42.5" y="0.5" width="33" height="23" rx="3.5" fill="white"/>
<rect x="42.5" y="0.5" width="33" height="23" rx="3.5" stroke="#E0DDE4"/>
<path fill-rule="evenodd" clip-rule="evenodd" d="M59.179 16.8297C57.9949 17.8278 56.459 18.4303 54.7807 18.4303C51.0358 18.4303 48 15.4306 48 11.7303C48 8.02997 51.0358 5.03027 54.7807 5.03027C56.459 5.03027 57.9949 5.63277 59.179 6.63081C60.363 5.63277 61.8989 5.03027 63.5773 5.03027C67.3221 5.03027 70.358 8.02997 70.358 11.7303C70.358 15.4306 67.3221 18.4303 63.5773 18.4303C61.8989 18.4303 60.363 17.8278 59.179 16.8297Z" fill="#ED0006"/>
<path fill-rule="evenodd" clip-rule="evenodd" d="M59.1787 16.8297C60.6366 15.6008 61.5611 13.7722 61.5611 11.7303C61.5611 9.68832 60.6366 7.85972 59.1787 6.63081C60.3628 5.63277 61.8987 5.03027 63.577 5.03027C67.3219 5.03027 70.3577 8.02997 70.3577 11.7303C70.3577 15.4306 67.3219 18.4303 63.577 18.4303C61.8987 18.4303 60.3628 17.8278 59.1787 16.8297Z" fill="#F9A000"/>
<path fill-rule="evenodd" clip-rule="evenodd" d="M59.1793 16.8297C60.6372 15.6008 61.5616 13.7722 61.5616 11.7303C61.5616 9.68835 60.6372 7.85976 59.1793 6.63086C57.7213 7.85976 56.7969 9.68835 56.7969 11.7303C56.7969 13.7722 57.7213 15.6008 59.1793 16.8297Z" fill="#FF5E00"/>
</svg>
