<svg width="56" height="56" viewBox="0 0 56 56" fill="none" xmlns="http://www.w3.org/2000/svg">
<circle cx="28" cy="28" r="26" fill="#F6EDD9" stroke="white" stroke-width="4"/>
<path d="M19.8333 38.5C19.1917 38.5 18.6424 38.2715 18.1854 37.8146C17.7285 37.3576 17.5 36.8083 17.5 36.1667V19.8333C17.5 19.1917 17.7285 18.6424 18.1854 18.1854C18.6424 17.7285 19.1917 17.5 19.8333 17.5H36.1667C36.8083 17.5 37.3576 17.7285 37.8146 18.1854C38.2715 18.6424 38.5 19.1917 38.5 19.8333H29.1667C27.7861 19.8333 26.6632 20.266 25.7979 21.1312C24.9326 21.9965 24.5 23.1194 24.5 24.5V31.5C24.5 32.8806 24.9326 34.0035 25.7979 34.8687C26.6632 35.734 27.7861 36.1667 29.1667 36.1667H38.5C38.5 36.8083 38.2715 37.3576 37.8146 37.8146C37.3576 38.2715 36.8083 38.5 36.1667 38.5H19.8333ZM29.1667 33.8333C28.525 33.8333 27.9757 33.6049 27.5187 33.1479C27.0618 32.691 26.8333 32.1417 26.8333 31.5V24.5C26.8333 23.8583 27.0618 23.309 27.5187 22.8521C27.9757 22.3951 28.525 22.1667 29.1667 22.1667H37.3333C37.975 22.1667 38.5243 22.3951 38.9812 22.8521C39.4382 23.309 39.6667 23.8583 39.6667 24.5V31.5C39.6667 32.1417 39.4382 32.691 38.9812 33.1479C38.5243 33.6049 37.975 33.8333 37.3333 33.8333H29.1667ZM32.6667 29.75C33.1722 29.75 33.5903 29.5847 33.9208 29.2542C34.2514 28.9236 34.4167 28.5056 34.4167 28C34.4167 27.4944 34.2514 27.0764 33.9208 26.7458C33.5903 26.4153 33.1722 26.25 32.6667 26.25C32.1611 26.25 31.7431 26.4153 31.4125 26.7458C31.0819 27.0764 30.9167 27.4944 30.9167 28C30.9167 28.5056 31.0819 28.9236 31.4125 29.2542C31.7431 29.5847 32.1611 29.75 32.6667 29.75Z" fill="#D1A340"/>
</svg>
