<svg width="16" height="16" viewBox="0 0 16 16" fill="none" xmlns="http://www.w3.org/2000/svg">
<path fill-rule="evenodd" clip-rule="evenodd" d="M7.66587 0.433595C11.7954 0.431248 15.2395 3.88138 15.2395 8.00295C15.2395 12.1296 11.7958 15.5694 7.66567 15.5666C6.58975 15.5659 5.51242 15.3392 4.5192 14.8853L0.769794 15.5632C0.567411 15.5998 0.360976 15.5248 0.229258 15.3669C0.0975402 15.2089 0.0608636 14.9923 0.133222 14.7999L1.20632 11.9448C0.483878 10.7596 0.0988716 9.38959 0.0988647 8.00295C0.0988453 3.87936 3.53883 0.434971 7.66587 0.433595ZM11.4655 11.2181C10.6229 11.8997 9.31939 12.5873 8.07296 11.7872C6.43802 10.7377 4.99124 9.35736 3.94161 7.72252C3.32625 6.76408 3.90535 5.23018 4.77169 4.29551C5.11756 3.92234 5.68634 3.98135 6.0621 4.32439L6.85317 5.0466C7.09378 5.26625 7.10225 5.64804 6.95224 5.93723C6.71571 6.39325 6.5766 7.00466 6.86907 7.46029C7.23651 8.03269 7.68995 8.59564 8.77029 8.92443C9.09711 9.0239 9.51725 8.98101 9.87323 8.83679C10.1722 8.71566 10.5503 8.71706 10.7712 8.95218L11.5065 9.73498C11.912 10.1667 11.9261 10.8456 11.4655 11.2181Z" fill="#F5F5F5"/>
</svg>
